<?xml version="1.0" encoding="UTF-8" standalone="no"?>
<svg
   xmlns:dc="http://purl.org/dc/elements/1.1/"
   xmlns:rdf="http://www.w3.org/1999/02/22-rdf-syntax-ns#"
   xmlns:svg="http://www.w3.org/2000/svg"
   xmlns="http://www.w3.org/2000/svg"
   xml:space="preserve"
   enable-background="new 0 0 841.89 595.28"
   viewBox="0 0 29.999999 29.999999"
   height="30"
   width="30"
   y="0px"
   x="0px"
   id="Layer_1"
   version="1.0"><defs
     id="defs21" /><g
     transform="translate(-406.68815,-284.38971)"
     id="g16"><g
       id="g4"><path
         style="fill:#ffffff;stroke:none;stroke-miterlimit:10"
         id="path2"
         d="m 412.21,301.213 v -1.357 c -0.958,-0.043 -1.887,-0.301 -2.43,-0.615 l 0.429,-1.672 c 0.6,0.328 1.444,0.629 2.372,0.629 0.815,0 1.372,-0.314 1.372,-0.885 0,-0.545 -0.457,-0.887 -1.515,-1.244 -1.529,-0.516 -2.573,-1.229 -2.573,-2.615 0,-1.258 0.886,-2.244 2.416,-2.543 v -1.359 h 1.4 v 1.258 c 0.958,0.043 1.601,0.242 2.072,0.473 l -0.414,1.615 c -0.372,-0.158 -1.029,-0.486 -2.058,-0.486 -0.929,0 -1.229,0.398 -1.229,0.799 0,0.473 0.5,0.771 1.715,1.23 1.701,0.6 2.387,1.385 2.387,2.672 0,1.271 -0.901,2.357 -2.544,2.645 v 1.457 h -1.4 z"
         stroke-miterlimit="10" /></g><g
       id="g14"><path
         style="fill:#ffffff;stroke:none;stroke-miterlimit:10"
         id="path6"
         d="m 432.298,294.414 c -0.229,-0.014 -0.435,-0.029 -0.64,-0.035 -1.734,-0.051 -3.469,-0.096 -5.205,-0.145 -1.415,-0.041 -2.83,-0.082 -4.246,-0.131 -0.178,-0.006 -0.25,0.025 -0.27,0.232 -0.269,2.67 -0.654,5.316 -1.488,7.879 -0.106,0.33 -0.231,0.654 -0.362,0.979 -0.024,0.059 -0.115,0.129 -0.177,0.131 -0.418,0.012 -0.838,0.006 -1.301,0.006 0.069,-0.16 0.114,-0.264 0.158,-0.365 0.567,-1.295 0.905,-2.658 1.186,-4.039 0.369,-1.82 0.596,-3.66 0.761,-5.508 0.039,-0.439 0.295,-0.65 0.744,-0.639 1.556,0.047 3.115,0.094 4.673,0.139 2.211,0.062 4.423,0.123 6.635,0.186 0.121,0.002 0.242,0.008 0.361,0.027 0.34,0.057 0.579,0.34 0.545,0.68 -0.12,1.189 -0.221,2.381 -0.387,3.562 -0.203,1.455 -0.438,2.906 -0.713,4.35 -0.32,1.676 -0.752,3.326 -1.445,4.893 -0.277,0.627 -0.605,1.225 -1.059,1.746 -0.504,0.58 -1.123,0.879 -1.908,0.865 -3.194,-0.053 -6.389,-0.09 -9.584,-0.137 -1.094,-0.016 -1.995,-0.457 -2.707,-1.283 -0.684,-0.791 -1.109,-1.715 -1.348,-2.725 -0.1,-0.422 0.198,-0.803 0.627,-0.793 1.572,0.027 3.146,0.066 4.717,0.102 0.938,0.02 1.877,0.045 2.817,0.066 0.861,0.02 1.723,0.049 2.583,0.051 0.431,0 0.694,0.176 0.875,0.568 0.329,0.719 0.716,1.41 1.224,2.021 0.176,0.211 0.375,0.412 0.592,0.58 0.4,0.309 0.74,0.297 1.074,-0.08 0.256,-0.289 0.482,-0.617 0.662,-0.961 0.586,-1.129 0.924,-2.35 1.23,-3.578 0.462,-1.855 0.793,-3.736 1.036,-5.633 0.114,-0.908 0.218,-1.82 0.325,-2.73 0.011,-0.084 0.01,-0.17 0.015,-0.281 m -6.064,13.471 c -0.373,-0.637 -0.744,-1.258 -1.1,-1.887 -0.076,-0.135 -0.152,-0.189 -0.311,-0.191 -1.002,-0.016 -2.006,-0.043 -3.008,-0.068 -1.849,-0.043 -3.696,-0.086 -5.545,-0.129 -0.059,0 -0.117,0.014 -0.203,0.021 0.287,0.674 0.638,1.258 1.199,1.693 0.389,0.303 0.834,0.451 1.324,0.459 2.497,0.039 4.994,0.074 7.49,0.111 0.055,10e-4 0.111,-0.007 0.154,-0.009"
         stroke-miterlimit="10" /><path
         style="fill:#ffffff;stroke:none;stroke-miterlimit:10"
         id="path8"
         d="m 426.742,296.617 c 0.975,0.035 1.947,0.07 2.92,0.107 0.334,0.012 0.52,0.297 0.373,0.568 -0.082,0.146 -0.211,0.201 -0.375,0.195 -1.095,-0.037 -2.188,-0.072 -3.283,-0.109 -0.854,-0.029 -1.705,-0.061 -2.559,-0.098 -0.309,-0.012 -0.455,-0.15 -0.449,-0.395 0.006,-0.236 0.181,-0.381 0.475,-0.371 0.966,0.033 1.933,0.068 2.898,0.103"
         stroke-miterlimit="10" /><path
         style="fill:#ffffff;stroke:none;stroke-miterlimit:10"
         id="path10"
         d="m 426.109,300.074 c -0.931,-0.033 -1.86,-0.066 -2.791,-0.105 -0.232,-0.01 -0.369,-0.145 -0.383,-0.35 -0.014,-0.191 0.098,-0.359 0.277,-0.402 0.068,-0.018 0.143,-0.014 0.211,-0.012 1.764,0.061 3.525,0.121 5.288,0.182 0.063,0.002 0.127,0.008 0.19,0.018 0.23,0.031 0.36,0.182 0.352,0.402 -0.01,0.211 -0.164,0.367 -0.395,0.361 -0.539,-0.01 -1.08,-0.037 -1.619,-0.049 -0.377,-0.008 -0.754,-0.002 -1.131,-0.002 v -0.043 z"
         stroke-miterlimit="10" /><path
         style="fill:#ffffff;stroke:none;stroke-miterlimit:10"
         id="path12"
         d="m 424.223,302.684 c -0.506,0 -1.012,0.006 -1.516,-0.002 -0.314,-0.006 -0.502,-0.174 -0.484,-0.416 0.016,-0.234 0.207,-0.375 0.508,-0.363 1.004,0.037 2.006,0.074 3.009,0.115 0.269,0.012 0.44,0.17 0.433,0.395 -0.009,0.229 -0.181,0.369 -0.455,0.369 -0.498,0 -0.996,0 -1.494,0 v -0.098 z"
         stroke-miterlimit="10" /></g></g></svg>