<?xml version="1.0" encoding="UTF-8" standalone="no"?>
<svg
   xmlns:dc="http://purl.org/dc/elements/1.1/"
   xmlns:cc="http://creativecommons.org/ns#"
   xmlns:rdf="http://www.w3.org/1999/02/22-rdf-syntax-ns#"
   xmlns:svg="http://www.w3.org/2000/svg"
   xmlns="http://www.w3.org/2000/svg"
   xmlns:sodipodi="http://sodipodi.sourceforge.net/DTD/sodipodi-0.dtd"
   xmlns:inkscape="http://www.inkscape.org/namespaces/inkscape"
   viewBox="0 0 44.33 44.33"
   version="1.1"
   id="svg8"
   sodipodi:docname="icon_books.svg"
   inkscape:version="0.92.2 (5c3e80d, 2017-08-06)">
  <metadata
     id="metadata14">
    <rdf:RDF>
      <cc:Work
         rdf:about="">
        <dc:format>image/svg+xml</dc:format>
        <dc:type
           rdf:resource="http://purl.org/dc/dcmitype/StillImage" />
      </cc:Work>
    </rdf:RDF>
  </metadata>
  <defs
     id="defs12" />
  <sodipodi:namedview
     pagecolor="#ffffff"
     bordercolor="#666666"
     borderopacity="1"
     objecttolerance="10"
     gridtolerance="10"
     guidetolerance="10"
     inkscape:pageopacity="0"
     inkscape:pageshadow="2"
     inkscape:window-width="683"
     inkscape:window-height="480"
     id="namedview10"
     showgrid="false"
     inkscape:zoom="5.3237083"
     inkscape:cx="33.641237"
     inkscape:cy="22.165001"
     inkscape:window-x="43"
     inkscape:window-y="27"
     inkscape:window-maximized="0"
     inkscape:current-layer="svg8" />
  <title
     id="title2">icon_books</title>
  <circle
     cx="22.17"
     cy="22.17"
     r="22.17"
     fill="#21a5b8"
     id="circle4" />
  <path
     style="fill:#ffffff"
     inkscape:connector-curvature="0"
     d="m 33.24,18.79 c -0.11,-0.78 -0.12,-2.14 0.61,-2.59 v 0 c 0.6,-0.19 1,-0.46 0.69,-0.82 l -8.76,-2.68 -14.24,2 c 0,0 -1.63,0.23 -1.48,2.77 A 3.28,3.28 0 0 0 11,19.84 l -1.17,0.35 c -0.33,0.36 0.09,0.63 0.68,0.82 v 0 c 0.72,0.45 0.71,1.8 0.61,2.59 -2.62,0.74 -1.68,1 -1.68,1 l 0.57,0.14 a 2.83,2.83 0 0 0 -0.73,2.37 c 0.15,2.53 1.49,2.71 1.49,2.71 l 9.31,3 14.06,-3.41 c 0,0 0.94,-0.24 -1.68,-1 -0.1,-0.78 -0.12,-2.13 0.61,-2.59 v 0 c 0.59,-0.19 1,-0.46 0.68,-0.81 l -0.61,-0.19 c 0.41,-0.25 1,-0.89 1.12,-2.56 a 3,3 0 0 0 -0.58,-2.21 l 1.21,-0.29 c 0,0 0.97,-0.23 -1.65,-0.97 z m -11.76,0 2.36,-0.49 8,-1.64 1.16,-0.27 a 4.16,4.16 0 0 0 -0.3,2.26 c 0,0.13 0,0.26 0.05,0.36 l -1.3,0.32 -10.07,2.51 z m -10.16,2.43 1.19,0.25 7.68,1.53 0.67,0.14 v 0 l 2,0.41 0.1,3.09 -10.36,-2.54 -1,-0.26 c 0,-0.09 0,-0.22 0,-0.36 a 4.07,4.07 0 0 0 -0.28,-2.26 z m -0.46,-3.89 a 2,2 0 0 1 0.35,-1.41 0.58,0.58 0 0 1 0.46,-0.19 h 0.12 l 6.13,2 3.06,1 -0.1,3.11 -8.59,-2.41 -0.45,-0.13 h -0.05 c 0,0 -0.89,-0.09 -0.93,-1.97 z m 9.24,14.18 -9,-2.53 H 11 c 0,0 -0.88,-0.08 -0.92,-2 a 2,2 0 0 1 0.35,-1.41 0.64,0.64 0 0 1 0.46,-0.19 H 11 l 9.2,3 z m 11.84,-3.19 c 0,0.14 0,0.27 0,0.36 l -11.35,2.84 0.1,-3.09 2.44,-0.5 0.36,0.09 1.35,-0.44 6.21,-1.27 1.19,-0.25 a 4.07,4.07 0 0 0 -0.3,2.26 z m 0.63,-4.19 H 32.5 l -0.85,0.24 -8.18,2.3 -0.1,-3.11 2.68,-0.88 6.5,-2.11 a 0.68,0.68 0 0 1 0.59,0.17 2,2 0 0 1 0.35,1.41 c -0.04,1.9 -0.89,1.98 -0.92,1.98 z"
     id="path6" />
</svg>
