<svg xmlns="http://www.w3.org/2000/svg" viewBox="0 0 43.91 43.91"><title>icon_house</title><circle cx="21.96" cy="21.96" r="21.96" fill="#21a5b8"/><path d="M35,20.84c-.37.42-.72.86-1.1,1.26a.75.75,0,0,1-1.08,0L29.76,19.4l-7.63-6.62L22,12.65l-.22.18L11.21,22c-.59.51-.92.5-1.43-.06l-.63-.67a.73.73,0,0,1,.07-1.17l8.84-7.66,3.29-2.86a.8.8,0,0,1,1.22,0l5,4.33.09.06a1.8,1.8,0,0,0,0-.22c0-.67,0-1.35,0-2a.73.73,0,0,1,.81-.8h1.65a.72.72,0,0,1,.78.78c0,1.63,0,3.25,0,4.88a.46.46,0,0,0,.17.39q1.74,1.48,3.45,3a6.3,6.3,0,0,1,.48.55Z" fill="#fff"/><path d="M31.77,28.87c.32,0,.64,0,.95,0a.59.59,0,0,1,.67.67v1c0,.53-.2.72-.73.72H11.26c-.55,0-.74-.19-.73-.73,0-.37,0-.73,0-1.1a.55.55,0,0,1,.61-.6c.33,0,.66,0,1,0V22.81a.49.49,0,0,1,.18-.42l9.4-8.14c.16-.14.25-.16.43,0l9.39,8.15a.48.48,0,0,1,.2.43c0,1.92,0,3.85,0,5.77C31.75,28.67,31.76,28.75,31.77,28.87Zm-15.52,0v-6.1c0-.32.1-.42.42-.42h3.14c.43,0,.5.07.5.5,0,1.91,0,3.81,0,5.72v.3h.83c0-.05,0-.09,0-.13V22.34a.81.81,0,0,0-.87-.84c-1.32,0-2.65,0-4,0a.82.82,0,0,0-.89.89v6.2a2.28,2.28,0,0,0,0,.26ZM26,24V22.31c-.46,0-.9,0-1.34,0-.1,0-.27.13-.27.21,0,.47,0,.94,0,1.42Zm2.47,0c0-.47,0-.91,0-1.35a.37.37,0,0,0-.23-.27c-.46,0-.93,0-1.4,0V24ZM26,24.78H24.4c0,.47,0,.91,0,1.36a.38.38,0,0,0,.25.26c.45,0,.91,0,1.38,0Zm2.46,0H26.87v1.63h1.32a.27.27,0,0,0,.31-.27C28.51,25.69,28.5,25.24,28.5,24.78Zm-10.63.8h-.26c-.61,0-.57-.06-.56.61,0,.16.08.23.24.23s.57,0,.86,0c.57,0,.56,0,.55-.56,0-.19-.07-.29-.27-.28S18.06,25.58,17.87,25.58Z" fill="#fff"/></svg>