<?xml version="1.0" encoding="UTF-8" standalone="no"?>
<svg
   xmlns:dc="http://purl.org/dc/elements/1.1/"
   xmlns:cc="http://creativecommons.org/ns#"
   xmlns:rdf="http://www.w3.org/1999/02/22-rdf-syntax-ns#"
   xmlns:svg="http://www.w3.org/2000/svg"
   xmlns="http://www.w3.org/2000/svg"
   xmlns:sodipodi="http://sodipodi.sourceforge.net/DTD/sodipodi-0.dtd"
   xmlns:inkscape="http://www.inkscape.org/namespaces/inkscape"
   viewBox="-5 904.073 29.999999 29.999999"
   version="1.1"
   id="svg7"
   sodipodi:docname="icon_tag_white.svg"
   width="30"
   height="30"
   inkscape:version="0.92.2 (5c3e80d, 2017-08-06)">
  <metadata
     id="metadata11">
    <rdf:RDF>
      <cc:Work
         rdf:about="">
        <dc:format>image/svg+xml</dc:format>
        <dc:type
           rdf:resource="http://purl.org/dc/dcmitype/StillImage" />
        <dc:title></dc:title>
      </cc:Work>
    </rdf:RDF>
  </metadata>
  <sodipodi:namedview
     pagecolor="#ffffff"
     bordercolor="#666666"
     borderopacity="1"
     objecttolerance="10"
     gridtolerance="10"
     guidetolerance="10"
     inkscape:pageopacity="0"
     inkscape:pageshadow="2"
     inkscape:window-width="1256"
     inkscape:window-height="1025"
     id="namedview9"
     showgrid="false"
     inkscape:zoom="7.87"
     inkscape:cx="8.0845003"
     inkscape:cy="8.0845003"
     inkscape:window-x="1304"
     inkscape:window-y="27"
     inkscape:window-maximized="0"
     inkscape:current-layer="svg7" />
  <defs
     id="defs4">
    <style
       id="style2">
      .cls-1 {
        fill: #fff;
      }
    </style>
  </defs>
  <path
     id="if_tag_1608866"
     class="cls-1"
     d="m 6.6963846,914.40338 a 1.366,1.366 0 1 0 -0.4,0.966 1.316,1.316 0 0 0 0.4,-0.966 z m 11.3880004,6.147 a 1.307,1.307 0 0 1 -0.395,0.961 l -5.24,5.251 a 1.367,1.367 0 0 1 -0.971,0.395 1.307,1.307 0 0 1 -0.961,-0.395 l -7.6310004,-7.642 a 3.181,3.181 0 0 1 -0.688,-1.078 3.3,3.3 0 0 1 -0.283,-1.249 v -4.44 a 1.385,1.385 0 0 1 1.366,-1.365 h 4.44 a 3.783,3.783 0 0 1 2.3370004,0.971 l 7.631,7.62 a 1.367,1.367 0 0 1 0.395,0.972 z"
     style="fill:#ffffff;stroke:none"
     inkscape:connector-curvature="0" />
</svg>
