<svg xmlns="http://www.w3.org/2000/svg" viewBox="0 0 25.02 25.02">
    <title>icon_hands</title>
    <path d="M12.12,25V18.33c0-.68,0-1.35,0-2v-.23c-.48-.06-.94-.1-1.39-.17a4.39,4.39,0,0,1-3.35-2.49,13.62,13.62,0,0,1-1.1-3.1.38.38,0,0,1,.35-.52,5,5,0,0,1,3.67,1.15,7,7,0,0,1,1.41,1.92c.13.23.24.46.39.74,0-.1,0-.16,0-.21,0-.56,0-1.11,0-1.67a.55.55,0,0,0-.14-.35A13.25,13.25,0,0,1,9.63,8.2,5.06,5.06,0,0,1,9,5.74a5.39,5.39,0,0,1,.74-2.4A13.3,13.3,0,0,1,12.19.16a.39.39,0,0,1,.61,0,12.14,12.14,0,0,1,2.94,4.21A4.48,4.48,0,0,1,15.48,8a12.72,12.72,0,0,1-2.41,3.32.55.55,0,0,0-.18.43c0,.59,0,1.18,0,1.79l.11-.19c.36-.59.69-1.21,1.08-1.77a4.36,4.36,0,0,1,3.12-1.76,10,10,0,0,1,1.1-.05.38.38,0,0,1,.39.51,13.16,13.16,0,0,1-1.21,3.33A4.48,4.48,0,0,1,13.81,16c-.29,0-.58,0-.89.08a.77.77,0,0,0,0,.15V25Zm.79-19.14v4.5A10.63,10.63,0,0,0,15,7.27a3.62,3.62,0,0,0,0-2.76,10.7,10.7,0,0,0-2.33-3.43L12.49.94A11,11,0,0,0,10,4.58a3.53,3.53,0,0,0,0,2.5,9.32,9.32,0,0,0,1.6,2.7l.48.56.06,0V5.88Zm5,4.68h-.18a3.84,3.84,0,0,0-2.87,1.39,12,12,0,0,0-1.74,3.23s0,0,0,.11c.33,0,.66-.07,1-.13a3.55,3.55,0,0,0,2.42-1.4A9.88,9.88,0,0,0,17.89,10.56Zm-10.76,0a11,11,0,0,0,1.14,2.87,3.36,3.36,0,0,0,1.57,1.41,5.71,5.71,0,0,0,2.1.43,1.22,1.22,0,0,0,0-.17A13.91,13.91,0,0,0,10.6,12.5a4.14,4.14,0,0,0-1.37-1.39A4.33,4.33,0,0,0,7.13,10.55Z"
          fill="#00666f"/>
    <path d="M14.86,25c0-.7,0-1.4,0-2.1a.93.93,0,0,1,.78-1.05c0-.86,0-1.72,0-2.58a3.39,3.39,0,0,1,1-2.52c1.24-1.21,2.46-2.45,3.68-3.68a.64.64,0,0,1,.47-.19,1.71,1.71,0,0,1,1.5.65A1.94,1.94,0,0,1,22.66,15a.23.23,0,0,1-.08.14L19.89,17.8a.15.15,0,0,1-.08,0l-.58-.58a1.08,1.08,0,0,0,.24-.14l2.22-2.21a.74.74,0,0,0,0-1,.71.71,0,0,0-1,0l-3.53,3.52a2.42,2.42,0,0,0-.73,1.68c0,.91,0,1.81,0,2.72a.45.45,0,0,0,0,.08h3.49a6,6,0,0,1,0-.61,3,3,0,0,1,.88-1.63L23.51,17a2.31,2.31,0,0,0,.75-1.78c0-1.93,0-3.86,0-5.79a.77.77,0,0,0-1.07-.78.71.71,0,0,0-.5.76v3.09H21.9v-3a1.65,1.65,0,0,1,1.36-1.66A1.61,1.61,0,0,1,25,9l.06.13v6.7A4.21,4.21,0,0,1,23.62,18c-.76.74-1.51,1.5-2.26,2.26a1.91,1.91,0,0,0-.63,1.64.92.92,0,0,1,.77,1c0,.71,0,1.42,0,2.12h-.78V22.69H15.64V25Z"
          fill="#00666f"/>
    <path d="M0,9.14l.09-.22A1.61,1.61,0,0,1,1.76,7.84,1.64,1.64,0,0,1,3.12,9.43c0,1,0,2,0,2.93a.62.62,0,0,1,0,.13H2.35v-.26c0-.94,0-1.89,0-2.83a.76.76,0,0,0-1-.76.71.71,0,0,0-.52.78c0,1.44,0,2.87,0,4.3,0,.52,0,1,0,1.57a2.1,2.1,0,0,0,.69,1.65c.84.84,1.67,1.69,2.52,2.52a3,3,0,0,1,1.1,2.42H8.59c0-.06,0-.13,0-.2,0-.83,0-1.66,0-2.49a2.45,2.45,0,0,0-.73-1.78L4.33,13.87a.72.72,0,0,0-1.12.2.67.67,0,0,0,.14.85l2.21,2.22.17.17-.55.56L3.89,16.56,2.5,15.18a.54.54,0,0,1-.15-.38,1.74,1.74,0,0,1,.51-1.45,1.85,1.85,0,0,1,1.56-.43c.06,0,.13.07.18.12l3.86,3.87a3.16,3.16,0,0,1,.91,2.23c0,.81,0,1.63,0,2.44v.29a1,1,0,0,1,.79,1.05c0,.7,0,1.4,0,2.1H9.38V22.69H4.3V25H3.52c0-.7,0-1.4,0-2.1a.92.92,0,0,1,.77-1,1.94,1.94,0,0,0-.65-1.66L1,17.62a3.69,3.69,0,0,1-.86-1.24c-.06-.16-.11-.33-.17-.5Z"
          fill="#00666f"/>
</svg>