<svg xmlns="http://www.w3.org/2000/svg" xmlns:xlink="http://www.w3.org/1999/xlink" viewBox="0 0 157.62 37.65"><defs><clipPath id="a" transform="translate(0 -0.18)"><rect width="157.62" height="40.17" fill="none"/></clipPath></defs><title>logo_globalVillage</title><g clip-path="url(#a)"><path d="M87.23,30.47,80.36,8.54h3l3.26,10.81c.89,3,1.67,5.63,2.24,8.18h.07c.59-2.53,1.45-5.29,2.39-8.14L94.82,8.54h2.9l-7.5,21.93Z" transform="translate(0 -0.18)" fill="#c02a26"/><path d="M99.07,16.67h2.5v13.8h-2.5Z" transform="translate(0 -0.18)" fill="#c02a26"/><path d="M105.74,10.21h2.5V30.47h-2.5Z" transform="translate(0 -0.18)" fill="#c02a26"/><path d="M112.41,10.21h2.5V30.47h-2.5Z" transform="translate(0 -0.18)" fill="#c02a26"/><path d="M125.72,23.42c-2.71-.06-5.83.43-5.83,3.1a2.21,2.21,0,0,0,2,2.4h.34a3.44,3.44,0,0,0,3.36-2.31,2.61,2.61,0,0,0,.12-.79Zm2.45,3.75a20.32,20.32,0,0,0,.21,3.3h-2.27l-.22-1.75h-.08a5.11,5.11,0,0,1-4.22,2.06,3.94,3.94,0,0,1-4.21-3.65c0-.1,0-.2,0-.31,0-3.34,3-5.18,8.3-5.14v-.29a2.85,2.85,0,0,0-3.14-3.19,6.84,6.84,0,0,0-3.6,1l-.57-1.67a8.8,8.8,0,0,1,4.56-1.21c4.22,0,5.25,2.89,5.25,5.65Z" transform="translate(0 -0.18)" fill="#c02a26"/><path d="M140.66,22.1a3.94,3.94,0,0,0-.14-1.13A3.62,3.62,0,0,0,137,18.3c-2.39,0-4.11,2-4.11,5.23,0,2.7,1.4,5,4.09,5a3.68,3.68,0,0,0,3.49-2.58,4.63,4.63,0,0,0,.2-1.34Zm2.49,6.36c0,3.19-.65,5.11-2,6.32a7.43,7.43,0,0,1-5,1.66,8.92,8.92,0,0,1-4.61-1.14l.63-1.93a7.81,7.81,0,0,0,4.06,1.1c2.56,0,4.44-1.34,4.44-4.84V28.09h-.05a4.9,4.9,0,0,1-4.39,2.33c-3.44,0-5.88-2.93-5.88-6.75,0-4.68,3-7.32,6.23-7.32a4.58,4.58,0,0,1,4.3,2.38H141l.1-2.06h2.22c-.07,1-.12,2.09-.12,3.77Z" transform="translate(0 -0.18)" fill="#c02a26"/><path d="M155.21,22.22c0-1.59-.65-4.07-3.46-4.07-2.56,0-3.66,2.32-3.86,4.07ZM147.86,24c0,3.39,2.21,4.79,4.73,4.79a9.26,9.26,0,0,0,3.82-.7l.44,1.78a11.07,11.07,0,0,1-4.61.88c-4.24,0-6.79-2.83-6.79-7s2.47-7.45,6.5-7.45c4.5,0,5.67,3.95,5.67,6.49a6.63,6.63,0,0,1-.08,1.18Z" transform="translate(0 -0.18)" fill="#c02a26"/><path d="M17.93,29.51a21.24,21.24,0,0,1-6.75,1.17c-3.54,0-6.24-.89-8.23-2.8A10.47,10.47,0,0,1,0,20.17C0,13.52,4.76,9.28,11.7,9.28a13.94,13.94,0,0,1,5.57,1l-.85,3.09a11.14,11.14,0,0,0-4.77-.9C7.19,12.45,4,15.1,4,20s2.94,7.6,7.29,7.6a7.68,7.68,0,0,0,2.89-.42V21.91h-3.7v-3h7.42Z" transform="translate(0 -0.18)" fill="#f9a13e"/><path d="M21.52,10.21H25V30.47H21.52Z" transform="translate(0 -0.18)" fill="#f9a13e"/><path d="M47.17,24.72a3.84,3.84,0,0,0,.09.83A3.21,3.21,0,0,0,50.36,28c2.2,0,3.53-1.76,3.53-4.56,0-2.45-1.18-4.46-3.5-4.46a3.26,3.26,0,0,0-3.1,2.57,3.5,3.5,0,0,0-.12.91ZM43.66,10.2h3.51v8.28h.06a5,5,0,0,1,4.43-2.22c3.39,0,5.82,2.81,5.8,7,0,5-3.16,7.48-6.31,7.48a4.77,4.77,0,0,1-4.38-2.4h-.06l-.16,2.09h-3c.06-.94.11-2.47.11-3.9Z" transform="translate(0 -0.18)" fill="#f9a13e"/><path d="M67.7,23.66c-2.48,0-4.84.49-4.84,2.61a1.85,1.85,0,0,0,1.69,2,1.5,1.5,0,0,0,.3,0,2.86,2.86,0,0,0,2.75-1.92,2.51,2.51,0,0,0,.1-.77Zm3.42,3.46a19.78,19.78,0,0,0,.22,3.35H68.17l-.24-1.55h-.09a5.08,5.08,0,0,1-4.09,1.86,4.1,4.1,0,0,1-4.37-3.84c0-.1,0-.2,0-.29,0-3.51,3.12-5.28,8.24-5.26v-.23c0-.91-.36-2.43-2.82-2.42a7.33,7.33,0,0,0-3.74,1l-.7-2.28a10.06,10.06,0,0,1,5-1.23c4.46,0,5.73,2.81,5.73,5.86Z" transform="translate(0 -0.18)" fill="#f9a13e"/><path d="M74.21,10.21h3.52V30.47H74.21Z" transform="translate(0 -0.18)" fill="#f9a13e"/><path d="M98.9,12.16h2.82V15H98.9Z" transform="translate(0 -0.18)" fill="#f9a13e"/><path d="M35.94,30.35c-1.15-.22-2.71.18-3.64-.52-3.62-1.59-6.52-4.32-5.89-8.79.5-1.38,1.37-3.84,2.73-4.43.24-.22.48-.66.82-.66-.13.13-.71.7-.37.61a5.72,5.72,0,0,1,3.23-1.74l-.15.13a.14.14,0,0,0,0,.11c.11,0,.2,0,.3.15-.57.24-1.11.48-1.68.74,0,.07,0,.13,0,.2a3.14,3.14,0,0,1-.83.44,7.05,7.05,0,0,0-2.33,4.2C28,22.13,28,25.6,29.18,26.6c.92-.65.8.48,1.46,1,.13.48,2.6,1.59,3.12,1.48a.63.63,0,0,0,.11.15H34s0-.06,0-.09a2.67,2.67,0,0,0,1.72-.1c.46-.29,1,0,1.55-.2.24-.15.5-.33.75-.46,0,0,0,0,0-.06s.44-.33.61-.4c0,0,0,0,0-.06.2-.05,1.31-.83,1.36-.81a.2.2,0,0,0,0,.11s0,0,.07.06c-.26.82-3.56,3.15-4.15,3.15" transform="translate(0 -0.18)" fill="#f9a13e"/><path d="M35.35,28.26c-.56-.55.31-1.2.18-1.57-.29-.3-.52-1.18-1-1,0,0-1.18-.94-1.23-1h.07c.17-.18-.39-.83-.41-1.12,0,0,0,0,0,0,0-.44.74-.83,1.2-.89.44-.92-.46-.46-.87-.5-.59-.29-.61-.14-1.09-.14-.07-.1-.07-.1,0-.15-.33-.48-.83.42-1,.35.05-.06.22-.22.17-.3-.34,0-.56-.13-.63.15a.37.37,0,0,0,.22.17v.05c-.7,0,0-.92-.5-.83-1,.59-.79-.7-.94-1.09a1.22,1.22,0,0,1,.53-1.57,7.41,7.41,0,0,1,1-1l0,0V18c.46.33.28-1.53,1.55-1.11a.12.12,0,0,0,0,.1s0,0,.06.07a3.07,3.07,0,0,0,.5-.2V16.8a.64.64,0,0,1-.26-.08,3,3,0,0,1,.72-.09s.29.26.57.24c.7-.46.5,0,1,0,.12.24,0,.39.38.39.54.37.37,4.59-.33,3.71-.05-.69-.37-.33-.37-.8-.57-.57-2.82,1.61-.72,1.2.28,0,.41.22.63.5.15,0,.59.39.87.31,0-.05.05-.07,0-.13.26-.53,1.7-.07,1.94.67s0,.7,0,1.42c.33.17-.24,1.85-.33,2.16a5.34,5.34,0,0,1-2,1.94" transform="translate(0 -0.18)" fill="#f9a13e"/><path d="M39.74,26.1a2.43,2.43,0,0,0,.41-.5s0-.05,0-.07l-.33.07c-.61-.61-.48-1.53-.55-2.21-.8-2-.52-2.86,1.84-2.94,0-.37-.09-.77-.37-.81-.27.26-1.47,0-1.55-.41-.42-.42,0-1.53.21-1.88,0-.15-1.7-1.42-.78-1.57.22.15.41.68.68.94.91-.11,1.72,1.76,2.09,2.59a.37.37,0,0,0,.28.22s0,0,0,.07h0c.13.15.06.15.11.39,0,0,0,0,0,0s0,.09,0,.15l-.13.07a.32.32,0,0,1,0,.17l.15,0a.07.07,0,0,1,0-.06s.19.61.26.76c0,0-.15,1.31.15,1.51a.22.22,0,0,1-.22,0c0,.15.15.94-.11,1.05,0,.21-.28.41-.35.63a2.23,2.23,0,0,1-.37,0c-.15.18-1.09,1.94-1.52,1.75" transform="translate(0 -0.18)" fill="#f9a13e"/><path d="M32.5,5,32,4.58l-.42-.32-.41-.38-.42-.39-.35-.35L30.27,3l-.13-.19-.09-.2-.24-.33-.24-.5-.22-.57L29.2.81,29.09.46l0-.13S29,0,28.92.33a2.6,2.6,0,0,0-.06.56v1l.08.59.11.44.09.28.06.2,0,.15-.07.24.5.5.59.61.57.66a1.93,1.93,0,0,1,.54,1.31c.09,1,.2,1,.2,1l-.15.48-.13.2-.05.15-.11.15-.06.42L31,9.81l-.17.44-.24.63-.26.75-.18.72-.09.06-.63-.22L28.72,12,28.48,12s-.26-.29-.48.17a1.82,1.82,0,0,1-.37.61s-.37.37.17.15.31-.28.31-.28.09-.29.31,0a.79.79,0,0,0,.5.24l.3.21.48.29.46.22.66.07a1.74,1.74,0,0,0,.72-.7,2.68,2.68,0,0,1,.52-.77l.28-.46.15-.21s.22-.5.51,0,.5.81.78,1.2L34,13l.24.15,0,.29.76.94.77,1,.37.53.37.46.17.26s.35.61.38-.31-.27-1.06-.27-1.06l-.39-1-.22-.55L36,13.24l-.33-.7-.35-.78L35.07,11l-.33-.61-.26-.66-.24-.43,0-.15.39-.85.54-.9.46-.54.48-.59.5-.59.64-.7.63-.7.55-.65.1-.07V3.31l0-.12L38.3,3l-.13.26-.7.7L36,4.89l-1,.65-.28.18s-.15.11-.26,0a2.71,2.71,0,0,0-.35-.24L34,5.43l0-.23.13-.33.11-.29s.15-.61-.11-.89a1.86,1.86,0,0,1-.33-.41.48.48,0,0,0-.7,0l0,0a1.1,1.1,0,0,0-.33.7l-.15.2,0,.34Z" transform="translate(0 -0.18)" fill="#c02a26"/></g><path d="M81.14,37.77h.53V33.92h-.53Z" transform="translate(0 -0.18)" fill="#c02a26"/><g clip-path="url(#a)"><path d="M83.54,37.77V33.92h.57l1.29,1.94a9.26,9.26,0,0,1,.73,1.25h0a15.71,15.71,0,0,1-.06-1.58V33.92h.5v3.85h-.53l-1.29-2A12.68,12.68,0,0,1,84,34.53h0c0,.49,0,.95,0,1.59v1.65Z" transform="translate(0 -0.18)" fill="#c02a26"/><path d="M89.22,34.34H88v-.43h3v.43H89.75v3.43h-.52Z" transform="translate(0 -0.18)" fill="#c02a26"/><path d="M94.5,36H92.93v1.39h1.75v.42H92.4V33.92h2.19v.41H92.93v1.22H94.5Z" transform="translate(0 -0.18)" fill="#c02a26"/><path d="M96.85,35.72h.53c.56,0,.92-.29.92-.73s-.38-.71-.93-.72a2.24,2.24,0,0,0-.52,0ZM96.32,34a4.92,4.92,0,0,1,1-.08,1.73,1.73,0,0,1,1.17.31.92.92,0,0,1,.32.73,1,1,0,0,1-.76,1v0a1,1,0,0,1,.59.78,6.33,6.33,0,0,0,.31,1h-.54a4.76,4.76,0,0,1-.27-.91c-.12-.54-.33-.74-.81-.75h-.49v1.67h-.53Z" transform="translate(0 -0.18)" fill="#c02a26"/><path d="M103.35,37.64a2.8,2.8,0,0,1-1.07.18,1.85,1.85,0,0,1-2-1.68,1.13,1.13,0,0,1,0-.26,2,2,0,0,1,1.9-2h.21a2.4,2.4,0,0,1,1,.17l-.12.41a1.94,1.94,0,0,0-.82-.16,1.46,1.46,0,0,0-1.58,1.34,1,1,0,0,0,0,.25,1.43,1.43,0,0,0,1.31,1.55h.25a2.24,2.24,0,0,0,.85-.15Z" transform="translate(0 -0.18)" fill="#c02a26"/><path d="M107,36.17l-.4-1.11c-.09-.25-.15-.48-.21-.71h0c-.06.23-.12.47-.2.7l-.4,1.11Zm-.38-3.11.63.65h-.44l-.38-.4h0l-.38.4h-.43l.61-.65Zm-.95,3.49-.42,1.22h-.55l1.38-3.86h.63l1.38,3.86h-.55l-.44-1.22Z" transform="translate(0 -0.18)" fill="#c02a26"/><path d="M113,36.07c0-.53-.07-1.18-.06-1.66h0c-.14.45-.31.93-.51,1.46l-.72,1.87h-.4l-.65-1.83a15.69,15.69,0,0,1-.47-1.5h0c0,.48,0,1.13-.08,1.7L110,37.77h-.5l.28-3.86h.67l.69,1.87a13.4,13.4,0,0,1,.41,1.29h0a13,13,0,0,1,.43-1.29l.72-1.87h.67l.25,3.86h-.51Z" transform="translate(0 -0.18)" fill="#c02a26"/><path d="M115.92,37.39a2.16,2.16,0,0,0,.44,0c.54,0,1-.19,1-.75s-.47-.74-1-.74h-.44Zm0-1.85h.48c.55,0,.88-.27.88-.64s-.37-.63-.89-.63a3.71,3.71,0,0,0-.47,0ZM115.4,34a5.17,5.17,0,0,1,1-.07,1.69,1.69,0,0,1,1.11.28.78.78,0,0,1,.33.67.91.91,0,0,1-.68.85h0a1,1,0,0,1,.49,1.74,2.1,2.1,0,0,1-1.4.36,7.32,7.32,0,0,1-.81,0Z" transform="translate(0 -0.18)" fill="#c02a26"/><path d="M120.14,37.77h-.52V33.92h.52Z" transform="translate(0 -0.18)" fill="#c02a26"/><path d="M122.33,35.86a1.4,1.4,0,0,0,1.22,1.56h.07c.83,0,1.3-.72,1.3-1.6a1.4,1.4,0,0,0-1.22-1.56h-.07c-.87,0-1.3.75-1.3,1.6m3.15-.06a1.84,1.84,0,0,1-1.65,2h-.24a1.81,1.81,0,0,1-1.82-1.78v-.18a1.87,1.87,0,0,1,1.71-2h.17a1.8,1.8,0,0,1,1.83,1.75v.2" transform="translate(0 -0.18)" fill="#c02a26"/><path d="M127.05,37.16a1.88,1.88,0,0,0,.93.25c.54,0,.85-.27.85-.66s-.21-.56-.76-.76S127,35.44,127,34.9s.52-1,1.31-1a2,2,0,0,1,.9.19l-.15.41a1.6,1.6,0,0,0-.77-.19c-.55,0-.76.32-.76.58s.24.54.8.74,1,.57,1,1.13-.47,1.11-1.42,1.11a2.21,2.21,0,0,1-1-.24Z" transform="translate(0 -0.18)" fill="#c02a26"/></g></svg>