<?xml version="1.0" encoding="utf-8"?>
<svg version="1.1" id="Layer_1" xmlns="http://www.w3.org/2000/svg" xmlns:xlink="http://www.w3.org/1999/xlink" x="0px"
     y="0px"
     width="850.39px" height="850.39px" enable-background="new 0 0 850.39 850.39" xml:space="preserve">
    <symbol id="miolo" viewBox="0 0 850.39 850.39">
        <g>
            <path fill="#6D8044" d="M485.056,266.979l22.469-57.673c-1.981,0.021-3.985,0.373-5.904,1.172l-56.726,23.502
                c1.321,2.687,2.133,5.713,2.133,8.911c0,2.718-0.577,5.329-1.555,7.684L485.056,266.979z"/>
            <path fill="#6D8044" d="M522.553,219.165c-0.789-1.929-1.94-3.593-3.324-5.01l-22.469,57.674l40.929,16.957
                c0.981-2.376,2.408-4.614,4.348-6.522c1.535-1.546,3.265-2.782,5.138-3.688L522.553,219.165z"/>
        </g>
        <g>
            <path fill="#693163" d="M408.875,235.419l-60.199-24.941c-1.897-0.789-3.902-1.14-5.863-1.172l24.685,56.745l40.908-16.958
                c-0.639-1.95-1.001-4.039-1.001-6.203C407.405,240.259,407.916,237.731,408.875,235.419z"/>
            <path fill="#693163" d="M331.09,214.112c-1.386,1.428-2.559,3.102-3.369,5.042l-24.024,58.035c3.176,0.874,6.183,2.558,8.676,5.074
                c1.536,1.524,2.75,3.24,3.688,5.094l39.735-16.478L331.09,214.112z"/>
        </g>
        <g>
            <path fill="#6D8044" d="M209.731,342.354c0.021,1.973,0.383,3.977,1.172,5.905l24.622,59.431c2.815-1.545,6.055-2.419,9.486-2.419
                c1.833,0,3.603,0.277,5.329,0.757l16.671-40.268L209.731,342.354z"/>
            <path fill="#6D8044" d="M271.85,354.08l16.798-40.599c-1.535-0.832-2.986-1.908-4.285-3.218c-2.26-2.26-3.859-4.945-4.775-7.802
                l-59.986,24.834c-1.962,0.81-3.624,1.982-5.031,3.368L271.85,354.08z"/>
        </g>
        <g>
            <path fill="#723063" d="M267.203,484.134l-16.606-40.053c-1.77,0.521-3.645,0.82-5.585,0.82c-3.539,0-6.863-0.948-9.741-2.559
                l-24.367,58.866c-3.623,7.175-7.865,7.921-8.888,9.881L267.203,484.134z"/>
            <path fill="#723063" d="M214.698,518.914c1.386,1.332,3.027,2.44,4.904,3.24l60.199,24.939c0.938-2.621,2.473-5.072,4.562-7.172
                c1.386-1.377,2.899-2.508,4.54-3.38l-16.86-40.704L214.698,518.914z"/>
        </g>
        <g>
            <path fill="#6D8044" d="M407.405,607.304c0-2.419,0.447-4.72,1.235-6.842l-40.971-16.979l-24.855,56.671
                c1.961-0.032,3.966-0.395,5.863-1.184l59.964-24.846C407.852,611.994,407.405,609.692,407.405,607.304z"/>
            <path fill="#6D8044" d="M355.987,578.632l-39.648-16.411c-0.981,2.075-2.281,4.006-3.966,5.722
                c-2.431,2.42-5.329,4.071-8.399,4.966l23.747,57.375c0.811,1.949,1.983,3.655,3.391,5.064L355.987,578.632z"/>
        </g>
        <g>
            <path fill="#723063" d="M484.887,582.543l-39.715,16.448c1.151,2.546,1.855,5.329,1.855,8.312c0,2.953-0.704,5.745-1.855,8.292
                l56.448,23.365c1.919,0.799,3.923,1.161,5.904,1.193L484.887,582.543z"/>
            <path fill="#723063" d="M542.036,567.942c-2.11-2.1-3.6-4.563-4.562-7.173l-40.885,16.914l22.639,57.619
                c1.384-1.417,2.535-3.102,3.324-5.02l24.366-58.771C545.149,570.585,543.528,569.413,542.036,567.942z"/>
        </g>
        <g>
            <path fill="#6D8044" d="M640.564,507.082c-0.041-1.971-0.384-3.976-1.171-5.873l-23.771-57.352
                c-1.938,0.66-4.028,1.044-6.201,1.044c-3.325,0-6.396-0.82-9.124-2.24l-16.777,40.481L640.564,507.082z"/>
            <path fill="#6D8044" d="M578.66,494.835l-16.67,40.204c2.962,0.948,5.711,2.549,8.059,4.883c1.704,1.705,3.003,3.645,3.944,5.711
                l56.722-23.479c1.939-0.812,3.625-1.984,5.031-3.38L578.66,494.835z"/>
        </g>
        <g>
            <path fill="#693163" d="M583.669,366.71l16.861,40.694c2.687-1.354,5.691-2.132,8.891-2.132c2.067,0,4.07,0.342,5.947,0.938
                l24.025-57.95c0.787-1.908,1.13-3.912,1.171-5.872L583.669,366.71z"/>
            <path fill="#693163" d="M635.767,330.694c-1.405-1.407-3.112-2.59-5.052-3.399l-56.425-23.364c-0.96,2.303-2.389,4.477-4.264,6.332
                c-2.238,2.259-4.902,3.837-7.761,4.786l16.564,39.98L635.767,330.694z"/>
        </g>
        <path fill="#4B3364" d="M600.53,407.404l-16.861-40.694l-17.971,7.694c-0.254,5.48-3.558,10.595-8.954,12.812
            c-7.439,3.081-15.965-0.458-19.034-7.898c-3.091-7.44,0.426-15.966,7.866-19.059c5.285-2.184,11.085-0.99,15.135,2.528l18.119-7.76
            l-16.564-39.98c-6.885,2.271-14.771,0.704-20.229-4.786c-5.797-5.809-7.269-14.335-4.348-21.478l-40.929-16.957l-7.547,19.377
            c3.752,4.061,5.052,10.051,2.815,15.519c-3.092,7.418-11.619,10.946-19.058,7.887c-7.44-3.101-10.979-11.627-7.909-19.057
            c2.173-5.234,7.057-8.494,12.342-8.911l7.652-19.664l-39.606-16.405c-2.994,7.121-10.008,12.109-18.242,12.109
            c-8.761,0-16.2-5.692-18.801-13.59l-40.908,16.958l8.932,20.539c5.501,0.224,10.659,3.528,12.897,8.964
            c3.091,7.43-0.426,15.967-7.887,19.057c-7.44,3.092-15.966-0.469-19.057-7.887c-2.175-5.265-1.003-11.021,2.472-15.061l-9.06-20.784
            l-39.735,16.478c3.731,7.418,2.515,16.69-3.688,22.895c-6.438,6.428-16.18,7.493-23.725,3.229L271.85,354.08l21.679,8.857
            c4.03-3.635,9.934-4.893,15.306-2.676c7.439,3.082,10.958,11.619,7.888,19.059c-3.091,7.44-11.618,10.979-19.058,7.898
            c-5.33-2.195-8.591-7.184-8.932-12.566l-21.721-8.889l-16.671,40.268c8.335,2.324,14.474,9.966,14.474,19.057
            c0,8.996-6.01,16.576-14.217,18.996l16.606,40.053l21.529-8.688c0.384-5.338,3.645-10.294,8.932-12.48
            c7.44-3.091,15.967,0.438,19.058,7.897c3.091,7.43-0.449,15.968-7.888,19.047c-5.394,2.239-11.32,0.949-15.37-2.717l-21.422,8.645
            l16.86,40.704c7.504-4.091,17.097-2.984,23.471,3.39c6.033,6.022,7.333,14.975,3.966,22.289l39.648,16.411l8.825-20.144
            c-3.432-4.053-4.583-9.764-2.429-15.018c3.09-7.451,11.617-10.979,19.057-7.888c7.44,3.069,10.979,11.597,7.887,19.068
            c-2.238,5.424-7.396,8.728-12.938,8.931l-8.72,19.901l40.971,16.979c2.792-7.568,10.041-12.974,18.567-12.974
            c7.973,0,14.842,4.712,17.965,11.503l39.715-16.448l-7.463-19.003c-5.284-0.416-10.189-3.656-12.362-8.889
            c-3.07-7.472,0.469-15.999,7.909-19.068c7.438-3.08,15.966,0.437,19.058,7.888c2.236,5.437,0.937,11.426-2.794,15.465l7.355,18.748
            l40.885-16.914c-2.578-7.024-1.065-15.211,4.562-20.848c5.393-5.416,13.152-7.004,19.954-4.883l16.67-40.204l-17.886-7.481
            c-4.05,3.538-9.869,4.754-15.198,2.557c-7.44-3.091-10.957-11.617-7.866-19.047c3.069-7.459,11.595-10.988,19.034-7.897
            c5.352,2.208,8.655,7.27,8.954,12.706l17.821,7.471l16.777-40.481c-6.353-3.293-10.703-9.923-10.703-17.576
            C589.594,417.349,594.028,410.655,600.53,407.404z"/>
    </symbol>
    <symbol id="miolo-cinza" viewBox="0 0 850.39 850.39">
        <g>
            <path fill="#d0d0d0" d="M485.056,266.979l22.469-57.673c-1.981,0.021-3.985,0.373-5.904,1.172l-56.726,23.502
                c1.321,2.687,2.133,5.713,2.133,8.911c0,2.718-0.577,5.329-1.555,7.684L485.056,266.979z"/>
            <path fill="#d0d0d0" d="M522.553,219.165c-0.789-1.929-1.94-3.593-3.324-5.01l-22.469,57.674l40.929,16.957
                c0.981-2.376,2.408-4.614,4.348-6.522c1.535-1.546,3.265-2.782,5.138-3.688L522.553,219.165z"/>
        </g>
        <g>
            <path fill="#d0d0d0" d="M408.875,235.419l-60.199-24.941c-1.897-0.789-3.902-1.14-5.863-1.172l24.685,56.745l40.908-16.958
                c-0.639-1.95-1.001-4.039-1.001-6.203C407.405,240.259,407.916,237.731,408.875,235.419z"/>
            <path fill="#d0d0d0" d="M331.09,214.112c-1.386,1.428-2.559,3.102-3.369,5.042l-24.024,58.035c3.176,0.874,6.183,2.558,8.676,5.074
            c1.536,1.524,2.75,3.24,3.688,5.094l39.735-16.478L331.09,214.112z"/>
        </g>
        <g>
            <path fill="#d0d0d0" d="M209.731,342.354c0.021,1.973,0.383,3.977,1.172,5.905l24.622,59.431c2.815-1.545,6.055-2.419,9.486-2.419
                c1.833,0,3.603,0.277,5.329,0.757l16.671-40.268L209.731,342.354z"/>
            <path fill="#d0d0d0" d="M271.85,354.08l16.798-40.599c-1.535-0.832-2.986-1.908-4.285-3.218c-2.26-2.26-3.859-4.945-4.775-7.802
            l-59.986,24.834c-1.962,0.81-3.624,1.982-5.031,3.368L271.85,354.08z"/>
        </g>
        <g>
            <path fill="#d0d0d0" d="M267.203,484.134l-16.606-40.053c-1.77,0.521-3.645,0.82-5.585,0.82c-3.539,0-6.863-0.948-9.741-2.559
            l-24.367,58.866c-3.623,7.175-7.865,7.921-8.888,9.881L267.203,484.134z"/>
            <path fill="#d0d0d0" d="M214.698,518.914c1.386,1.332,3.027,2.44,4.904,3.24l60.199,24.939c0.938-2.621,2.473-5.072,4.562-7.172
            c1.386-1.377,2.899-2.508,4.54-3.38l-16.86-40.704L214.698,518.914z"/>
        </g>
        <g>
            <path fill="#d0d0d0" d="M407.405,607.304c0-2.419,0.447-4.72,1.235-6.842l-40.971-16.979l-24.855,56.671
            c1.961-0.032,3.966-0.395,5.863-1.184l59.964-24.846C407.852,611.994,407.405,609.692,407.405,607.304z"/>
            <path fill="#d0d0d0" d="M355.987,578.632l-39.648-16.411c-0.981,2.075-2.281,4.006-3.966,5.722
            c-2.431,2.42-5.329,4.071-8.399,4.966l23.747,57.375c0.811,1.949,1.983,3.655,3.391,5.064L355.987,578.632z"/>
        </g>
        <g>
            <path fill="#d0d0d0" d="M484.887,582.543l-39.715,16.448c1.151,2.546,1.855,5.329,1.855,8.312c0,2.953-0.704,5.745-1.855,8.292
            l56.448,23.365c1.919,0.799,3.923,1.161,5.904,1.193L484.887,582.543z"/>
            <path fill="#d0d0d0" d="M542.036,567.942c-2.11-2.1-3.6-4.563-4.562-7.173l-40.885,16.914l22.639,57.619
            c1.384-1.417,2.535-3.102,3.324-5.02l24.366-58.771C545.149,570.585,543.528,569.413,542.036,567.942z"/>
        </g>
        <g>
            <path fill="#d0d0d0" d="M640.564,507.082c-0.041-1.971-0.384-3.976-1.171-5.873l-23.771-57.352
            c-1.938,0.66-4.028,1.044-6.201,1.044c-3.325,0-6.396-0.82-9.124-2.24l-16.777,40.481L640.564,507.082z"/>
            <path fill="#d0d0d0" d="M578.66,494.835l-16.67,40.204c2.962,0.948,5.711,2.549,8.059,4.883c1.704,1.705,3.003,3.645,3.944,5.711
            l56.722-23.479c1.939-0.812,3.625-1.984,5.031-3.38L578.66,494.835z"/>
        </g>
        <g>
            <path fill="#d0d0d0" d="M583.669,366.71l16.861,40.694c2.687-1.354,5.691-2.132,8.891-2.132c2.067,0,4.07,0.342,5.947,0.938
                l24.025-57.95c0.787-1.908,1.13-3.912,1.171-5.872L583.669,366.71z"/>
            <path fill="#d0d0d0" d="M635.767,330.694c-1.405-1.407-3.112-2.59-5.052-3.399l-56.425-23.364c-0.96,2.303-2.389,4.477-4.264,6.332
                c-2.238,2.259-4.902,3.837-7.761,4.786l16.564,39.98L635.767,330.694z"/>
        </g>
        <path fill="#d0d0d0" d="M600.53,407.404l-16.861-40.694l-17.971,7.694c-0.254,5.48-3.558,10.595-8.954,12.812
        c-7.439,3.081-15.965-0.458-19.034-7.898c-3.091-7.44,0.426-15.966,7.866-19.059c5.285-2.184,11.085-0.99,15.135,2.528l18.119-7.76
        l-16.564-39.98c-6.885,2.271-14.771,0.704-20.229-4.786c-5.797-5.809-7.269-14.335-4.348-21.478l-40.929-16.957l-7.547,19.377
        c3.752,4.061,5.052,10.051,2.815,15.519c-3.092,7.418-11.619,10.946-19.058,7.887c-7.44-3.101-10.979-11.627-7.909-19.057
        c2.173-5.234,7.057-8.494,12.342-8.911l7.652-19.664l-39.606-16.405c-2.994,7.121-10.008,12.109-18.242,12.109
        c-8.761,0-16.2-5.692-18.801-13.59l-40.908,16.958l8.932,20.539c5.501,0.224,10.659,3.528,12.897,8.964
        c3.091,7.43-0.426,15.967-7.887,19.057c-7.44,3.092-15.966-0.469-19.057-7.887c-2.175-5.265-1.003-11.021,2.472-15.061l-9.06-20.784
        l-39.735,16.478c3.731,7.418,2.515,16.69-3.688,22.895c-6.438,6.428-16.18,7.493-23.725,3.229L271.85,354.08l21.679,8.857
        c4.03-3.635,9.934-4.893,15.306-2.676c7.439,3.082,10.958,11.619,7.888,19.059c-3.091,7.44-11.618,10.979-19.058,7.898
        c-5.33-2.195-8.591-7.184-8.932-12.566l-21.721-8.889l-16.671,40.268c8.335,2.324,14.474,9.966,14.474,19.057
        c0,8.996-6.01,16.576-14.217,18.996l16.606,40.053l21.529-8.688c0.384-5.338,3.645-10.294,8.932-12.48
        c7.44-3.091,15.967,0.438,19.058,7.897c3.091,7.43-0.449,15.968-7.888,19.047c-5.394,2.239-11.32,0.949-15.37-2.717l-21.422,8.645
        l16.86,40.704c7.504-4.091,17.097-2.984,23.471,3.39c6.033,6.022,7.333,14.975,3.966,22.289l39.648,16.411l8.825-20.144
        c-3.432-4.053-4.583-9.764-2.429-15.018c3.09-7.451,11.617-10.979,19.057-7.888c7.44,3.069,10.979,11.597,7.887,19.068
        c-2.238,5.424-7.396,8.728-12.938,8.931l-8.72,19.901l40.971,16.979c2.792-7.568,10.041-12.974,18.567-12.974
        c7.973,0,14.842,4.712,17.965,11.503l39.715-16.448l-7.463-19.003c-5.284-0.416-10.189-3.656-12.362-8.889
        c-3.07-7.472,0.469-15.999,7.909-19.068c7.438-3.08,15.966,0.437,19.058,7.888c2.236,5.437,0.937,11.426-2.794,15.465l7.355,18.748
        l40.885-16.914c-2.578-7.024-1.065-15.211,4.562-20.848c5.393-5.416,13.152-7.004,19.954-4.883l16.67-40.204l-17.886-7.481
        c-4.05,3.538-9.869,4.754-15.198,2.557c-7.44-3.091-10.957-11.617-7.866-19.047c3.069-7.459,11.595-10.988,19.034-7.897
        c5.352,2.208,8.655,7.27,8.954,12.706l17.821,7.471l16.777-40.481c-6.353-3.293-10.703-9.923-10.703-17.576
        C589.594,417.349,594.028,410.655,600.53,407.404z"/>
    </symbol>
</svg>
