<?xml version="1.0" encoding="utf-8"?>
<svg version="1.1" xmlns="http://www.w3.org/2000/svg" x="0px" y="0px"
     width="200px" height="200px" viewBox="0 0 200 200" enable-background="new 0 0 200 200" xml:space="preserve">
			<path d="M149.375,88.201V35.895L114.9,1.432H1.25v197.5h148.125v-0.362c27.767-3.086,49.359-26.602,49.375-55.185
				C198.734,114.786,177.142,91.268,149.375,88.201z M112.328,16.324l22.146,22.139h-22.146V16.324z M13.594,186.588V13.764H100
				v37.035h37.031v37.402c-10.816,1.199-20.687,5.494-28.712,11.98H25.938v12.344h71.074c-2.533,3.804-4.583,7.957-6.126,12.344
				H25.938v12.344H88.02c-0.234,2.027-0.363,4.085-0.363,6.172c0,17.457,8.07,33.03,20.678,43.203H13.594z M143.203,185.861
				c-23.455-0.053-42.438-19.029-42.492-42.477c0.054-23.462,19.037-42.439,42.492-42.492c23.447,0.053,42.425,19.03,42.485,42.492
				C185.628,166.832,166.65,185.809,143.203,185.861z"/>
    <rect x="25.938" y="75.494" width="98.75" height="12.344"/>
    <polygon points="149.391,137.213 149.391,112.525 137.031,112.525 137.031,137.213 112.344,137.213
				112.344,149.557 137.031,149.557 137.031,174.244 149.391,174.244 149.391,149.557 174.062,149.557 174.062,137.213 	"/>
</svg>
