<?xml version="1.0" encoding="utf-8"?>
<!-- Generator: Adobe Illustrator 16.0.0, SVG Export Plug-In . SVG Version: 6.00 Build 0)  -->
<!DOCTYPE svg PUBLIC "-//W3C//DTD SVG 1.1//EN" "http://www.w3.org/Graphics/SVG/1.1/DTD/svg11.dtd">
<svg version="1.1" id="Layer_1" xmlns="http://www.w3.org/2000/svg" xmlns:xlink="http://www.w3.org/1999/xlink" x="0px" y="0px"
	 width="200px" height="200px"  enable-background="new 0 0 200 200" xml:space="preserve">
	<symbol id="add_incoming_invoice" viewBox="0 0 200 200">
		<path d="M57.99,125.863c-7.102,1.177-16.564-3.548-20.108-4.737l-5.913,10.655c0,0,10.646,4.726,20.108,5.911v11.837h11.829v-13.022
		c10.648-3.548,16.564-13.011,17.748-21.296c0-9.467-7.1-16.56-22.477-22.479c-4.733-2.365-13.015-5.917-13.015-10.646
		c0-5.913,4.733-9.462,11.831-9.462c8.286,0,16.564,3.55,16.564,3.55l4.737-10.648c0,0-5.915-2.369-14.2-4.733v-8.285H53.265v8.285
		c-10.646,2.365-17.748,9.462-18.931,20.108c0,14.2,15.383,20.115,21.3,22.477c7.094,2.366,15.379,7.108,15.379,10.651
		C71.004,118.759,66.271,124.678,57.99,125.863z"/>
		<path d="M5.93,28.843v141.982h189.307V28.843H5.93z M183.399,158.987H17.761V40.672h165.639V158.987z"/>
		<path d="M100.583,64.338h70.991v11.835h-70.991V64.338z"/>
		<path d="M100.583,87.999h70.991V99.83h-70.991V87.999z"/>
		<g>
			<path d="M133.972,122.336L133.972,122.336v-13.418h6.037v13.418l0,0v6.289l0,0v13.43h-6.037v-13.43l0,0V122.336z"/>
		</g>
		<g>
			<path d="M140.141,122.468L140.141,122.468h13.418v6.037h-13.418l0,0h-6.289l0,0h-13.43v-6.037h13.43l0,0H140.141z"/>
		</g>
		<circle fill="none" stroke="#fff" stroke-width="2" stroke-miterlimit="10" cx="136.074" cy="125.548" r="21.882"/>
	</symbol>
</svg>
