<?xml version="1.0" encoding="utf-8"?>
<svg version="1.1" xmlns="http://www.w3.org/2000/svg" xmlns:xlink="http://www.w3.org/1999/xlink" x="0px" y="0px"
	 width="200px" height="200px" enable-background="new 0 0 200 200" xml:space="preserve">
	<symbol id="awaiting_confirmation" viewBox="0 0 200 200">
		<g>
		<path d="M179.196,191.229h-9.774v-13.033h-16.29v-33.305c0-8.798-4.374-16.97-11.694-21.85L106.874,100
			l34.563-23.042c7.32-4.88,11.694-13.052,11.694-21.849V21.804h16.29V8.771h9.774c1.799,0,3.259-1.457,3.259-3.258
			c0-1.801-1.46-3.258-3.259-3.258h-9.774h-3.259H35.836h-3.258h-9.774c-1.798,0-3.258,1.457-3.258,3.258
			c0,1.802,1.46,3.258,3.258,3.258h9.774v13.033h16.291v33.305c0,8.797,4.373,16.969,11.693,21.849L95.126,100l-34.563,23.042
			c-7.321,4.88-11.693,13.052-11.693,21.85v33.305H32.578v13.033h-9.774c-1.798,0-3.258,1.456-3.258,3.257
			c0,1.803,1.46,3.259,3.258,3.259h9.774h3.258h130.327h3.259h9.774c1.799,0,3.259-1.456,3.259-3.259
			C182.455,192.686,180.995,191.229,179.196,191.229z M39.094,15.288V8.771h123.812v6.517h-9.774H48.869H39.094z M64.176,71.537
			c-5.503-3.672-8.791-9.814-8.791-16.428V21.804h91.229v33.305c0,6.614-3.288,12.756-8.79,16.428L101,96.083L64.176,71.537z
			 M55.386,144.892c0-6.614,3.287-12.756,8.791-16.428L101,103.916l36.824,24.548c5.502,3.672,8.79,9.813,8.79,16.428v33.305H55.386
			V144.892z M39.094,184.712h9.775h104.263h9.774v6.518H39.094V184.712z"/>
		<path d="M71.406,60.693c-1.87-1.248-2.988-3.336-2.988-5.584v-7.24c0-1.802-1.459-3.258-3.258-3.258
			c-1.799,0-3.258,1.456-3.258,3.258v7.24c0,4.434,2.203,8.549,5.891,11.006l15.111,10.074c0.554,0.368,1.183,0.547,1.805,0.547
			c1.052,0,2.085-0.508,2.713-1.45c0.997-1.499,0.593-3.519-0.902-4.519L71.406,60.693z"/>
		<path d="M134.207,136.687l-15.11-10.074c-1.499-1-3.52-0.596-4.52,0.903c-0.997,1.499-0.594,3.519,0.902,4.519
			l15.111,10.074c1.873,1.248,2.991,3.334,2.991,5.585v7.24c0,1.801,1.459,3.258,3.258,3.258s3.259-1.457,3.259-3.258v-7.24
			C140.099,143.256,137.896,139.144,134.207,136.687z"/>
		</g>
	</symbol>
</svg>
