<?xml version="1.0" encoding="utf-8"?>
<svg version="1.1" xmlns="http://www.w3.org/2000/svg" xmlns:xlink="http://www.w3.org/1999/xlink" x="0px" y="0px"
	 width="200px" height="200px" enable-background="new 0 0 200 200" xml:space="preserve">
	<symbol viewBox="0 0 200 200" id="cancel">
		<g>
			<g>
				<path d="M170.325,30.48C151.532,11.697,126.582,1.356,100,1.356c-26.582,0-51.532,10.341-70.315,29.124
					C10.883,49.282,0.542,74.233,0.542,100.814c0,26.572,10.341,51.532,29.143,70.315c18.783,18.802,43.733,29.143,70.315,29.143
					c26.582,0,51.532-10.341,70.325-29.143c18.792-18.783,29.133-43.743,29.133-70.315C199.458,74.233,189.117,49.282,170.325,30.48z
					 M162.334,163.129c-16.663,16.673-38.812,25.844-62.334,25.844s-45.671-9.171-62.334-25.844
					c-34.371-34.361-34.371-90.287,0-124.648C54.329,21.818,76.479,12.657,100,12.657s45.671,9.161,62.334,25.824
					C196.705,72.842,196.705,128.768,162.334,163.129z"/>
				<path d="M143.829,56.985c-2.226-2.216-5.774-2.216-8,0L100,92.814L64.161,56.985c-2.206-2.216-5.765-2.216-7.991,0
					c-2.216,2.216-2.216,5.766,0,7.991l35.839,35.839L56.17,136.634c-2.216,2.226-2.216,5.784,0,8.001
					c1.094,1.093,2.552,1.679,3.981,1.679c1.42,0,2.878-0.547,3.972-1.679l35.838-35.82l35.82,35.82
					c1.104,1.093,2.562,1.679,3.98,1.679c1.459,0,2.888-0.547,3.972-1.679c2.226-2.217,2.226-5.775,0-8.001l-35.742-35.819
					l35.838-35.839C146.045,62.75,146.045,59.201,143.829,56.985z"/>
			</g>
		</g>
	</symbol>
</svg>
