<?xml version="1.0" ?>
<svg id="Layer_1" style="enable-background:new 0 0 74 74;" version="1.1" xml:space="preserve" xmlns="http://www.w3.org/2000/svg" xmlns:xlink="http://www.w3.org/1999/xlink">
	 <symbol id="ico_currency_exchange" viewBox="0 0 74 74">
		<g>
			<path class="st0" d="M32.4,11.9c-0.9-0.6-2.2-0.3-2.8,0.7l-5,8.2l-5-8.2c-0.6-0.9-1.8-1.2-2.8-0.7s-1.2,1.8-0.7,2.8L22.5,25h-2.3   c-1.1,0-2,0.9-2,2s0.9,2,2,2h2.4v1.7h-2.4c-1.1,0-2,0.9-2,2s0.9,2,2,2h2.4V37c0,1.1,0.9,2,2,2s2-0.9,2-2v-2.2H29c1.1,0,2-0.9,2-2   s-0.9-2-2-2h-2.4V29H29c1.1,0,2-0.9,2-2s-0.9-2-2-2h-2.3L33,14.6C33.6,13.7,33.3,12.5,32.4,11.9z"/><path class="st0" d="M49.4,27.8c-1.2,0-2.4,0.1-3.5,0.3c0.2-1.2,0.3-2.4,0.3-3.5C46.2,12.7,36.5,3,24.6,3C12.7,3,3,12.7,3,24.6   s9.7,21.6,21.6,21.6c1.2,0,2.4-0.1,3.5-0.3c-0.2,1.2-0.3,2.3-0.3,3.5c0,11.9,9.7,21.6,21.6,21.6C61.3,71,71,61.3,71,49.4   C71,37.5,61.3,27.8,49.4,27.8z M24.6,42.2C14.9,42.2,7,34.3,7,24.6S14.9,7,24.6,7s17.6,7.9,17.6,17.6c0,1.6-0.2,3.2-0.7,4.8   c-5.6,2.2-10,6.6-12.2,12.2C27.8,41.9,26.2,42.2,24.6,42.2z M49.4,67c-9.7,0-17.6-7.9-17.6-17.6s7.9-17.6,17.6-17.6   S67,39.7,67,49.4S59.1,67,49.4,67z"/><path class="st0" d="M55.5,39.7h-4.1v-2.1c0-1.1-0.9-2-2-2s-2,0.9-2,2V40c-2.4,0.7-4.2,3-4.2,5.6c0,3.2,2.6,5.8,5.8,5.8h0.7   c1,0,1.8,0.8,1.8,1.8c0,1-0.8,1.8-1.8,1.8h-6.5c-1.1,0-2,0.9-2,2s0.9,2,2,2h4.1v2.1c0,1.1,0.9,2,2,2s2-0.9,2-2v-2.3   c2.4-0.7,4.2-3,4.2-5.6c0-3.2-2.6-5.8-5.8-5.8h-0.7c-1,0-1.8-0.8-1.8-1.8s0.8-1.8,1.8-1.8h6.5c1.1,0,2-0.9,2-2S56.6,39.7,55.5,39.7   z"/>
		</g>
	</symbol>
</svg>