<svg version="1.1" id="Layer_1" xmlns="http://www.w3.org/2000/svg" xmlns:xlink="http://www.w3.org/1999/xlink" x="0px"
     y="0px"
     width="24px" height="24px" enable-background="new 0 0 24 24" xml:space="preserve">
	<symbol id="ico_tours" viewBox="0 0 24 24">
		<g>
			<g>
				<g>
					<path d="M5.896,7.214c-3.245,0-5.885,2.64-5.885,5.884c0,2.015,0.958,4.181,2.849,6.438
						c0.281,0.335,0.561,0.646,0.829,0.93c-1.22,0.332-1.953,0.932-1.953,1.629c0,1.237,2.144,1.904,4.16,1.904
						c2.017,0,4.16-0.668,4.16-1.904c0-0.697-0.732-1.296-1.952-1.629c0.487-0.515,1.011-1.119,1.509-1.795
						c0.115-0.156,0.082-0.377-0.075-0.492c-0.156-0.115-0.376-0.082-0.492,0.074c-0.601,0.815-1.251,1.531-1.818,2.101
						c-0.065,0.033-0.12,0.086-0.154,0.152c-0.508,0.499-0.936,0.87-1.178,1.072c-0.24-0.2-0.661-0.565-1.163-1.059
						c-0.036-0.079-0.099-0.141-0.176-0.175c-1.594-1.604-3.842-4.374-3.842-7.247c0-2.856,2.324-5.181,5.181-5.181
						c2.856,0,5.181,2.324,5.181,5.181c0,1.247-0.425,2.595-1.264,4.005c-0.099,0.166-0.044,0.383,0.123,0.482
						c0.167,0.099,0.383,0.044,0.482-0.123c0.904-1.52,1.362-2.988,1.362-4.364C11.78,9.854,9.14,7.214,5.896,7.214z M5.68,22.311
						c0.063,0.05,0.139,0.074,0.215,0.074c0.076,0,0.152-0.024,0.215-0.074c0.043-0.033,0.631-0.491,1.415-1.258
						c1.187,0.242,1.825,0.708,1.825,1.043c0,0.251-0.343,0.547-0.896,0.771c-0.678,0.277-1.587,0.43-2.56,0.43
						c-2.109,0-3.456-0.711-3.456-1.201c0-0.336,0.638-0.801,1.826-1.043C5.054,21.823,5.643,22.282,5.68,22.311z"/>
				</g>
			</g>
				<g>
				<g>
					<path d="M5.896,10.54c-0.557,0-1.086,0.176-1.531,0.508c-0.156,0.116-0.188,0.337-0.071,0.493
						c0.117,0.155,0.337,0.188,0.493,0.071c0.322-0.241,0.706-0.368,1.109-0.368c1.022,0,1.854,0.832,1.854,1.854
						s-0.832,1.854-1.854,1.854c-1.023,0-1.855-0.832-1.855-1.854c0-0.174,0.024-0.347,0.072-0.513
						c0.054-0.187-0.054-0.382-0.241-0.436c-0.187-0.053-0.381,0.055-0.435,0.241c-0.066,0.229-0.099,0.467-0.099,0.707
						c0,1.411,1.147,2.559,2.559,2.559c1.411,0,2.559-1.147,2.559-2.559C8.454,11.688,7.306,10.54,5.896,10.54z"/>
				</g>
			</g>
				<g>
				<g>
					<path d="M21.232,10.225c0.18-0.192,0.363-0.399,0.549-0.62c1.465-1.75,2.208-3.433,2.208-5
						C23.989,2.065,21.924,0,19.385,0c-1.854,0-3.52,1.104-4.242,2.812c-0.075,0.179,0.008,0.385,0.188,0.461
						c0.179,0.076,0.385-0.008,0.461-0.187c0.612-1.447,2.023-2.382,3.594-2.382c2.15,0,3.9,1.75,3.9,3.9
						c0,2.908-3.053,5.695-3.9,6.412c-0.187-0.158-0.48-0.416-0.824-0.754c-0.035-0.068-0.09-0.122-0.157-0.155
						c-1.215-1.224-2.919-3.327-2.919-5.502c0-0.194-0.157-0.352-0.352-0.352s-0.352,0.158-0.352,0.352c0,1.568,0.742,3.25,2.208,5
						c0.185,0.221,0.369,0.428,0.548,0.62c-0.906,0.272-1.431,0.737-1.431,1.295c0,0.471,0.382,0.886,1.076,1.169
						c0.595,0.242,1.376,0.376,2.202,0.376s1.608-0.134,2.203-0.376c0.693-0.283,1.076-0.698,1.076-1.169
						C22.664,10.962,22.139,10.498,21.232,10.225z M19.385,12.36c-1.666,0-2.574-0.556-2.574-0.841c0-0.186,0.413-0.526,1.296-0.714
						c0.594,0.578,1.034,0.921,1.063,0.943c0.062,0.049,0.139,0.074,0.215,0.074s0.152-0.025,0.216-0.074
						c0.028-0.022,0.47-0.366,1.063-0.943c0.393,0.084,0.733,0.207,0.973,0.352c0.202,0.123,0.322,0.258,0.322,0.362
						C21.959,11.805,21.051,12.36,19.385,12.36z"/>
				</g>
			</g>
				<g>
				<g>
					<path d="M19.385,2.556c-1.129,0-2.047,0.918-2.047,2.048s0.918,2.048,2.047,2.048s2.049-0.918,2.049-2.048
						C21.434,3.475,20.514,2.556,19.385,2.556z M19.385,5.948c-0.74,0-1.344-0.603-1.344-1.344s0.604-1.344,1.344-1.344
						c0.741,0,1.344,0.603,1.344,1.344S20.126,5.948,19.385,5.948z"/>
				</g>
			</g>
				<g>
				<g>
					<path d="M14.82,11.167h-0.161c-0.117,0-0.234,0.008-0.35,0.023c-0.192,0.026-0.328,0.203-0.302,0.396
						c0.023,0.177,0.174,0.306,0.348,0.306c0.016,0,0.031-0.001,0.047-0.003c0.084-0.011,0.171-0.017,0.257-0.017h0.161l0,0
						c0.193,0,0.352-0.158,0.352-0.352S15.014,11.167,14.82,11.167z"/>
				</g>
			</g>
				<g>
				<g>
					<path d="M13.656,21.727c0,0-0.001,0-0.002,0l-0.465,0.002c-0.194,0.001-0.351,0.159-0.35,0.354
						c0,0.193,0.158,0.351,0.352,0.351c0,0,0.001,0,0.002,0l0.465-0.003c0.194,0,0.352-0.158,0.35-0.354
						C14.008,21.883,13.85,21.727,13.656,21.727z"/>
				</g>
			</g>
				<g>
				<g>
					<path d="M15.237,15.727h-0.465c-0.194,0-0.352,0.157-0.352,0.352s0.157,0.352,0.352,0.352h0.465
						c0.194,0,0.353-0.157,0.353-0.352S15.432,15.727,15.237,15.727z"/>
				</g>
			</g>
				<g>
				<g>
					<path d="M13.373,11.885c-0.133-0.143-0.354-0.152-0.498-0.021c-0.131,0.121-0.25,0.256-0.355,0.401
						c-0.113,0.158-0.077,0.378,0.081,0.491c0.062,0.045,0.134,0.066,0.205,0.066c0.11,0,0.217-0.051,0.286-0.147
						c0.077-0.106,0.164-0.205,0.261-0.294C13.496,12.25,13.504,12.027,13.373,11.885z"/>
				</g>
			</g>
				<g>
				<g>
					<path d="M15.516,21.718c0,0-0.001,0-0.002,0l-0.465,0.003c-0.193,0-0.351,0.158-0.35,0.354
						c0,0.193,0.158,0.35,0.352,0.35c0,0,0.001,0,0.002,0l0.465-0.002c0.193-0.001,0.352-0.159,0.35-0.354
						C15.867,21.875,15.709,21.718,15.516,21.718z"/>
				</g>
			</g>
				<g>
				<g>
					<path d="M11.797,21.734h-0.001l-0.465,0.002c-0.194,0.002-0.351,0.16-0.35,0.354
						c0.001,0.194,0.158,0.352,0.352,0.352c0.001,0,0.001,0,0.001,0l0.465-0.003c0.194-0.001,0.351-0.159,0.35-0.354
						S11.991,21.734,11.797,21.734z"/>
				</g>
			</g>
				<g>
				<g>
					<path d="M13.633,15.43c-0.111-0.069-0.215-0.15-0.309-0.241c-0.141-0.135-0.364-0.13-0.498,0.009
						c-0.135,0.141-0.131,0.363,0.009,0.498c0.129,0.124,0.271,0.235,0.421,0.33c0.059,0.037,0.124,0.055,0.188,0.055
						c0.117,0,0.231-0.059,0.298-0.164C13.846,15.752,13.797,15.534,13.633,15.43z"/>
				</g>
			</g>
				<g>
				<g>
					<path d="M12.768,14.17c-0.023-0.121-0.036-0.246-0.036-0.371v-0.02c0.002-0.194-0.153-0.354-0.348-0.355
						c-0.001,0-0.003,0-0.004,0c-0.192,0-0.35,0.154-0.352,0.348l0,0.027c0,0.17,0.017,0.34,0.049,0.506
						c0.033,0.168,0.18,0.284,0.345,0.284c0.022,0,0.045-0.002,0.067-0.007C12.68,14.545,12.805,14.36,12.768,14.17z"/>
				</g>
			</g>
				<g>
				<g>
					<path d="M17.097,15.727h-0.465c-0.194,0-0.352,0.157-0.352,0.352s0.157,0.352,0.352,0.352h0.465
						c0.194,0,0.353-0.157,0.353-0.352S17.291,15.727,17.097,15.727z"/>
				</g>
			</g>
				<g>
				<g>
					<path d="M22.747,16.442c-0.136-0.106-0.28-0.204-0.431-0.288c-0.169-0.096-0.384-0.036-0.479,0.133
						c-0.095,0.17-0.035,0.385,0.134,0.48c0.119,0.066,0.233,0.143,0.34,0.228c0.064,0.051,0.143,0.075,0.219,0.075
						c0.104,0,0.207-0.045,0.275-0.133C22.926,16.784,22.9,16.562,22.747,16.442z"/>
				</g>
			</g>
				<g>
				<g>
					<path d="M21.441,21.971c-0.027-0.193-0.205-0.328-0.397-0.301c-0.115,0.016-0.233,0.023-0.351,0.024l-0.066,0.001
						c-0.194,0-0.352,0.158-0.35,0.354c0,0.193,0.158,0.35,0.352,0.35c0,0,0.001,0,0.002,0h0.065c0.148-0.001,0.298-0.012,0.444-0.031
						C21.333,22.34,21.468,22.162,21.441,21.971z"/>
				</g>
			</g>
				<g>
				<g>
					<path d="M22.994,20.98c-0.135-0.141-0.357-0.146-0.498-0.012c-0.098,0.094-0.205,0.181-0.317,0.258
						c-0.159,0.111-0.199,0.33-0.089,0.49c0.068,0.099,0.178,0.152,0.29,0.152c0.069,0,0.139-0.021,0.2-0.063
						c0.142-0.099,0.277-0.208,0.402-0.327C23.123,21.344,23.128,21.121,22.994,20.98z"/>
				</g>
			</g>
				<g>
				<g>
					<path d="M23.68,19.271c-0.191-0.036-0.375,0.09-0.412,0.28c-0.025,0.134-0.061,0.267-0.106,0.396
						c-0.065,0.183,0.03,0.385,0.214,0.449c0.039,0.014,0.078,0.021,0.117,0.021c0.145,0,0.281-0.09,0.332-0.233
						c0.059-0.163,0.104-0.332,0.136-0.502C23.996,19.491,23.87,19.307,23.68,19.271z"/>
				</g>
			</g>
				<g>
				<g>
					<path d="M23.889,18.141c-0.049-0.167-0.109-0.33-0.183-0.487c-0.083-0.177-0.292-0.253-0.468-0.171
						c-0.176,0.083-0.252,0.292-0.17,0.469c0.058,0.123,0.105,0.252,0.143,0.383c0.045,0.154,0.186,0.255,0.339,0.255
						c0.032,0,0.064-0.005,0.097-0.014C23.834,18.521,23.941,18.326,23.889,18.141z"/>
				</g>
			</g>
				<g>
				<g>
					<path d="M18.956,15.727h-0.465c-0.194,0-0.352,0.157-0.352,0.352s0.157,0.352,0.352,0.352h0.465
						c0.194,0,0.353-0.157,0.353-0.352S19.15,15.727,18.956,15.727z"/>
				</g>
			</g>
				<g>
				<g>
					<path d="M17.375,21.709c0,0-0.001,0-0.002,0l-0.465,0.002c-0.193,0.002-0.351,0.16-0.35,0.354
						c0,0.194,0.158,0.352,0.352,0.352c0,0,0.001,0,0.002,0l0.465-0.003c0.193-0.001,0.352-0.159,0.35-0.354
						C17.727,21.866,17.568,21.709,17.375,21.709z"/>
				</g>
			</g>
				<g>
				<g>
					<path d="M20.831,15.729c-0.05-0.003-0.101-0.003-0.149-0.003h-0.331c-0.194,0-0.352,0.157-0.352,0.352
						s0.157,0.352,0.352,0.352h0.331l0,0c0.039,0,0.079,0.001,0.118,0.003c0.005,0,0.011,0.001,0.017,0.001
						c0.187,0,0.342-0.148,0.351-0.337C21.176,15.902,21.025,15.738,20.831,15.729z"/>
				</g>
			</g>
				<g>
				<g>
					<path d="M19.234,21.701c0,0-0.001,0-0.002,0l-0.465,0.002c-0.193,0.001-0.351,0.159-0.35,0.354
						c0,0.193,0.158,0.351,0.352,0.351c0,0,0.001,0,0.002,0l0.465-0.003c0.193,0,0.351-0.158,0.35-0.354
						C19.586,21.857,19.428,21.701,19.234,21.701z"/>
				</g>
			</g>
		</g>
	</symbol>
</svg>
