<svg version="1.1" id="Layer_1" xmlns="http://www.w3.org/2000/svg" xmlns:xlink="http://www.w3.org/1999/xlink" x="0px" y="0px"
	 width="841.89px" height="841.89px" enable-background="new 0 -123.304 841.89 841.89"
	 xml:space="preserve">
    <symbol id="icon_delete" viewBox="0 -123.304 841.89 841.89">
        <g transform="translate(6398.17 -3690.547)">
            <path id="rect5636" d="M-6039.881,3690.602c-8.636-0.02-15.653,6.965-15.673,15.598c0,0.027,0,0.051,0,0.074v46.98h-125.311
                c-17.303,0.586-30.855,15.086-30.273,32.387c0.556,16.48,13.789,29.715,30.273,30.27h407.278
                c17.303-0.582,30.855-15.082,30.273-32.383c-0.555-16.484-13.789-29.715-30.273-30.273h-125.311v-46.98
                c0.021-8.637-6.965-15.652-15.6-15.672c-0.025,0-0.049,0-0.072,0H-6039.881z M-6024.208,3721.946h94.001v31.348h-94.001V3721.946z
                 M-6180.865,3847.258c-16.18-0.871-30.002,11.539-30.873,27.719c-0.065,1.207-0.055,2.418,0.029,3.629l62.261,375.82
                c1.021,16.871,14.475,30.328,31.346,31.348h281.968c16.871-1.02,30.324-14.477,31.346-31.348l62.045-375.859
                c1.134-16.164-11.051-30.184-27.213-31.316c-1.209-0.082-2.421-0.094-3.631-0.027L-6180.865,3847.258z"/>
        </g>
    </symbol>
</svg>
