<svg xmlns:dc="http://purl.org/dc/elements/1.1/"
     xmlns:cc="http://creativecommons.org/ns#"
     xmlns:rdf="http://www.w3.org/1999/02/22-rdf-syntax-ns#"
     xmlns:svg="http://www.w3.org/2000/svg"
     xmlns="http://www.w3.org/2000/svg"
     xmlns:sodipodi="http://sodipodi.sourceforge.net/DTD/sodipodi-0.dtd"
     xmlns:inkscape="http://www.inkscape.org/namespaces/inkscape"
     width="24" height="24" version="1.1">
    <symbol viewBox="0 0 24 24" id="icon_postpone">
        <path
            d="M0 0h24v24H0z"
            fill="none"
            id="path60"/>
        <path
            d="m 10.499997,3 c 4.97,0 9,4.03 9,9 h 3 l -3.89,3.89 -0.07,0.14 -4.04,-4.03 h 3 c 0,-3.87 -3.13,-7 -7,-7 -3.8699937,0 -6.9999937,3.13 -6.9999937,7 0,3.87 3.13,7 6.9999937,7 1.93,0 3.68,-0.79 4.94,-2.06 l 1.42,1.42 c -1.63,1.63 -3.87,2.64 -6.36,2.64 -4.9699937,0 -8.9999937,-4.03 -8.9999937,-9 0,-4.97 4.03,-9 8.9999937,-9 z m 1,5 v 5 l -4.2799937,2.54 -0.72,-1.21 3.4999997,-2.08 V 8 Z"
            id="path62"
            inkscape:connector-curvature="0"/>
    </symbol>
</svg>

