<svg viewBox="0 0 512 512" xmlns="http://www.w3.org/2000/svg">
    <style>
        .cls1 {
            fill: #acacac;
        }
    </style>
    <path class="cls1" d="m377 121h-242c-8.285156 0-15 6.714844-15 15v90c0 6.066406 3.65625 11.535156 9.261719 13.859375 5.601562 2.320313 12.054687 1.035156 16.34375-3.253906l25.609375-25.605469h39.785156v129.785156l-25.605469 25.609375c-4.289062 4.289063-5.574219 10.742188-3.253906 16.347657 2.324219 5.605468 7.792969 9.257812 13.859375 9.257812h120c6.066406 0 11.535156-3.65625 13.859375-9.261719 2.320313-5.601562 1.035156-12.054687-3.253906-16.34375l-25.605469-25.609375v-129.785156h39.785156l25.609375 25.605469c4.289063 4.292969 10.742188 5.574219 16.347657 3.253906 5.605468-2.324219 9.257812-7.792969 9.257812-13.859375v-90c0-8.285156-6.714844-15-15-15zm-15 68.785156-4.394531-4.390625c-2.8125-2.8125-6.628907-4.394531-10.605469-4.394531h-61c-8.285156 0-15 6.714844-15 15v151c0 3.976562 1.582031 7.792969 4.394531 10.605469l4.390625 4.394531h-47.570312l4.390625-4.394531c2.8125-2.8125 4.394531-6.628907 4.394531-10.605469v-151c0-8.285156-6.714844-15-15-15h-61c-3.976562 0-7.792969 1.582031-10.605469 4.394531l-4.394531 4.390625v-38.785156h212zm0 0"/>
    <path class="cls1" d="m497 0h-60c-8.285156 0-15 6.714844-15 15v15h-332v-15c0-8.285156-6.714844-15-15-15h-60c-8.285156 0-15 6.714844-15 15v60c0 8.285156 6.714844 15 15 15h15v332h-15c-8.285156 0-15 6.714844-15 15v60c0 8.285156 6.714844 15 15 15h60c8.285156 0 15-6.714844 15-15v-15h332v15c0 8.285156 6.714844 15 15 15h60c8.285156 0 15-6.714844 15-15v-60c0-8.285156-6.714844-15-15-15h-15v-332h15c8.285156 0 15-6.714844 15-15v-60c0-8.285156-6.714844-15-15-15zm-467 30h30v30h-30zm30 452h-30v-30h30zm422 0h-30v-30h30zm-30-60h-15c-8.285156 0-15 6.714844-15 15v15h-332v-15c0-8.285156-6.714844-15-15-15h-15v-332h15c8.285156 0 15-6.714844 15-15v-15h332v15c0 8.285156 6.714844 15 15 15h15zm30-362h-30v-30h30zm0 0"/>
</svg>