<svg xmlns="http://www.w3.org/2000/svg" viewBox="-2 0 34 30">
    <path id="bag"
          d="M5.22,33.6a3.232,3.232,0,0,1-3.464-2.949V29.314L0,28.921V21.293l1.756-.786V10.441c0-4.207,3.881-7.667,8.824-7.864a3.262,3.262,0,0,1,3-2.556,3.413,3.413,0,0,1,3.881,2.556c4.944.2,8.825,3.617,8.825,7.824v10.1L28,21.293v7.628l-1.756.393v1.337A3.232,3.232,0,0,1,22.78,33.6Zm.741-3.5H22.132V22H7.715v1.1H6.792V22H5.961Zm20.283-1.612.831-.2V24.675h-.831Zm-25.273-.2.831.2V24.675H.971ZM22.363,11.11c.092.039.138.118.231.2a1.132,1.132,0,0,1-.231,1.769V18.7h.692v8.414h2.311V10.4a6.719,6.719,0,0,0-3-5.426ZM5.174,5.409a6.624,6.624,0,0,0-2.449,5.033V27.113h2.31V18.659H5.73V13.076c-.093-.039-.14-.118-.23-.2a1.131,1.131,0,0,1,.23-1.769V4.976A5.389,5.389,0,0,0,5.174,5.409Zm21.07,18.48h.831V21.726l-.831-.354ZM.971,21.765v2.123H1.8V21.411Zm19.545-3.106h.923V13.351h-.923Zm-13.862,0h.924V13.351H6.654ZM8.5,3.679V11.11c.093.039.139.118.232.2A1.132,1.132,0,0,1,8.5,13.076V18.62H19.636V13.037c-.091-.039-.137-.118-.231-.2a1.133,1.133,0,0,1,.231-1.769V3.639a10.926,10.926,0,0,0-2.542-.315H11.044A9.209,9.209,0,0,0,8.5,3.679ZM6.284,12.093a.373.373,0,0,0,.37.315H7.669a.257.257,0,0,0,.186-.079.2.2,0,0,0,.092-.157v-.157a.2.2,0,0,0-.092-.157.257.257,0,0,0-.186-.079H6.654A.373.373,0,0,0,6.284,12.093ZM20.1,12.053a.372.372,0,0,0,.369.315h.925a.372.372,0,0,0,.369-.315c0-.039-.047-.079-.047-.118V11.9c0-.04-.045-.04-.091-.079h-.046a.191.191,0,0,0-.139-.039h-.923C20.33,11.778,20.1,11.9,20.1,12.053Zm.416-1.219h.923V4.426a6.314,6.314,0,0,0-.923-.432ZM6.654,4.426v6.409h.924V3.993A6.358,6.358,0,0,0,6.654,4.426Zm4.9-1.887H16.54A2.451,2.451,0,0,0,14.046.769,2.493,2.493,0,0,0,11.551,2.538Zm5.5,26.776V26.562h4.159v2.752Zm.924-.786h2.31v-1.18h-2.31ZM13.122,13.9,10.35,11.543a.857.857,0,0,1,0-1.376l2.773-2.359a1.256,1.256,0,0,1,1.617,0l2.772,2.359a.855.855,0,0,1,0,1.376L14.739,13.9a1.256,1.256,0,0,1-1.617,0Zm1.292-3.46v1.18a.469.469,0,0,0,.925,0v-1.18a.469.469,0,0,0-.925,0Zm-1.847,0v1.18a.468.468,0,0,0,.923,0v-1.18a.468.468,0,0,0-.923,0Z"/>
</svg>
