<svg version="1.1" id="Capa_1" xmlns="http://www.w3.org/2000/svg" xmlns:xlink="http://www.w3.org/1999/xlink" x="0px" y="0px"
	 viewBox="0 0 512 512" style="enable-background:new 0 0 512 512;" xml:space="preserve">
	<style>
        .cls1 {
            fill: #acacac;
        }
    </style>
<g>
	<g>
		<path class="cls1" d="M111.903,48.037C50.2,48.037,0,98.236,0,159.941c0,23.979,7.469,46.83,21.603,66.107l90.3,134.051l90.3-134.051
			c14.134-19.276,21.603-42.126,21.603-66.107C223.805,98.236,173.605,48.037,111.903,48.037z M111.903,216.91
			c-32.203,0-58.401-26.199-58.401-58.4c0-32.202,26.199-58.401,58.401-58.401s58.401,26.2,58.401,58.401
			C170.304,190.711,144.105,216.91,111.903,216.91z"/>
	</g>
</g>
<g>
	<g>
		<polygon class="cls1" points="153.483,403.922 132.256,382.695 112.849,402.102 93.442,382.695 72.216,403.922 91.622,423.328 72.216,442.735
			93.442,463.963 112.849,444.555 132.256,463.963 153.483,442.735 134.077,423.328 		"/>
	</g>
</g>
<g>
	<g>
		<polygon class="cls1" points="440.344,403.922 419.116,382.695 399.709,402.102 380.303,382.695 359.076,403.922 378.483,423.328
			359.076,442.735 380.303,463.963 399.709,444.555 419.116,463.963 440.344,442.735 420.936,423.328 		"/>
	</g>
</g>
<g>
	<g>
		<rect class="cls1" x="166.272" y="407.946" width="180.122" height="30.02"/>
	</g>
</g>
<g>
	<g>
		<path class="cls1" d="M400.097,48.038c-61.703,0-111.903,50.199-111.903,111.903c0,23.979,7.469,46.83,21.603,66.107l90.3,134.051l90.3-134.051
			C504.531,206.772,512,183.921,512,159.941C512,98.236,461.8,48.038,400.097,48.038z M400.097,216.91
			c-32.203,0-58.401-26.199-58.401-58.4c0-32.202,26.199-58.401,58.401-58.401s58.401,26.2,58.401,58.401
			C458.499,190.711,432.3,216.91,400.097,216.91z"/>
	</g>
</g>
</svg>
