<svg xmlns="http://www.w3.org/2000/svg">
  <symbol id="icon_reload" viewBox="3377 -675 30 30">
    <g transform="translate(2607 -1358)">
      <g id="Group_1885" data-name="Group 1885" transform="translate(-47 482)">
        <path id="if_sync_126579" d="M24.5,15.5a1.793,1.793,0,0,0-1.786,1.577,9.256,9.256,0,0,1-8.929,7.352,8.834,8.834,0,0,1-3.775-.846l.943-.939c.641-.614,1.046-.991,1.046-1.786a1.808,1.808,0,0,0-1.786-1.786H4.857a1.77,1.77,0,0,0-1.786,1.786v5.357A1.776,1.776,0,0,0,4.857,28c.864,0,1.229-.487,1.786-1.061l.729-.727A12.38,12.38,0,0,0,13.786,28c8.911,0,12.5-8.482,12.5-10.6A1.779,1.779,0,0,0,24.5,15.5Z" transform="translate(818.653 200)"/>
        <path id="if_sync_126579-2" data-name="if_sync_126579" class="cls-1" d="M4.571,11.923A9.258,9.258,0,0,1,13.5,4.571a8.833,8.833,0,0,1,3.775.845l-.943.941c-.641.614-1.046.991-1.046,1.786a1.808,1.808,0,0,0,1.786,1.786h5.357a1.77,1.77,0,0,0,1.786-1.786V2.786A1.776,1.776,0,0,0,22.429,1c-.864,0-1.229.487-1.786,1.061l-.729.727A12.38,12.38,0,0,0,13.5,1C4.589,1,1,9.482,1,11.6a1.794,1.794,0,0,0,3.571.32Z" transform="translate(819 202)"/>
      </g>
    </g>
  </symbol>
</svg>
