<svg version="1.1" id="Layer_1" xmlns="http://www.w3.org/2000/svg" xmlns:xlink="http://www.w3.org/1999/xlink" x="0px" y="0px"
	 width="841.89px" height="841.89px" enable-background="new 0 -123.304 841.89 841.89"
	 xml:space="preserve">
    <symbol id="icon_view" viewBox="0 -123.304 841.89 841.89">
        <g transform="translate(6309.941 -2853.462)">
            <path id="Path_1190" d="M-5888.996,2910.551c-153.92,0-273.805,91.711-420.926,240.552
                c126.645,127.23,233.01,240.55,420.926,240.55c187.916,0,325.853-143.564,420.925-237.893
                C-5565.37,3043.409-5703.309,2910.551-5888.996,2910.551z M-5888.996,3322.645c-94.768,1.791-173.043-73.58-174.834-168.348
                c-1.791-94.766,73.58-173.042,168.348-174.833c94.767-1.792,173.042,73.58,174.833,168.347c0.02,1.083,0.029,2.167,0.029,3.251
                C-5719.881,3244.882-5795.182,3321.614-5888.996,3322.645z"/>
            <g id="Group_1562" transform="translate(40.257 131.592)">
                <path id="Path_1191" d="M-5929.254,2959.333c-0.017-14.31,5.051-28.158,14.301-39.076c-4.729-0.76-9.512-1.138-14.301-1.133
                    c-55.323-1.059-101.029,42.934-102.087,98.257c-1.057,55.325,42.934,101.03,98.258,102.086
                    c55.324,1.059,101.029-42.934,102.085-98.256c0.014-0.646,0.02-1.292,0.02-1.936c0-4.337-0.391-8.636-0.742-12.974
                    c-26.031,20.697-63.912,16.371-84.609-9.661c-8.477-10.661-13.087-23.883-13.08-37.503L-5929.254,2959.333z"/>
            </g>
        </g>
    </symbol>
</svg>
