<svg xmlns="http://www.w3.org/2000/svg" viewBox="3123 -675 30 30">
  <defs>
    <style>
      .cls-1 {
        fill: #222;
      }

      .cls-2 {
        fill: #21a5b8;
      }

      .cls-3 {
        fill: none;
      }
    </style>
  </defs>
  <g id="icon_double_page_color" transform="translate(2607 -1358)">
    <g id="if_BT_copy_905652" transform="translate(443.287 106.763)">
      <g id="g4305" transform="translate(75.9 576.237)">
        <g id="g4345" transform="translate(0 0)">
          <g id="text2994" transform="translate(0 0)">
            <g id="layer1-1-1">
              <g id="g3989">
                <g id="layer1-1-7" transform="translate(0 5.335)">
                  <path id="path3833-1" class="cls-1" d="M75.343,456.977a1.07,1.07,0,0,0-.148.015H65.76a1.067,1.067,0,0,0-1.067,1.066v21.865a1.067,1.067,0,0,0,1.066,1.067H82.293a1.067,1.067,0,0,0,1.067-1.066V465.164a1.067,1.067,0,0,0-.4-1.018L76.2,457.388A1.067,1.067,0,0,0,75.343,456.977Zm-8.516,2.148h7.466v5.695a1.067,1.067,0,0,0,.307.935l.008.008.015.013a1.067,1.067,0,0,0,.912.282h5.691v12.8h-14.4Zm9.6,1.508,3.291,3.291H76.426Z" transform="translate(-64.694 -456.976)"/>
                </g>
                <path id="path3833-4" class="cls-2" d="M-57.988,315.544a1.07,1.07,0,0,0-.148.017h-9.435a1.08,1.08,0,0,0-.754.312,1.08,1.08,0,0,0-.312.754v2.933H-66.5v-1.867h7.466v4.356l2.577,2.577H-52.1v12.8h-1.867v2.133h2.933a1.08,1.08,0,0,0,.754-.312,1.08,1.08,0,0,0,.312-.754V323.733a1.09,1.09,0,0,0-.4-1.019l-6.758-6.758A1.084,1.084,0,0,0-57.988,315.544ZM-56.9,319.2l3.291,3.291H-56.9Z" transform="translate(73.97 -315.544)"/>
              </g>
            </g>
          </g>
        </g>
      </g>
    </g>
    <rect id="Rectangle_131" data-name="Rectangle 131" class="cls-3" width="30" height="30" transform="translate(516 683)"/>
  </g>
</svg>
