<svg xmlns="http://www.w3.org/2000/svg" xmlns:xlink="http://www.w3.org/1999/xlink" viewBox="0 0 36 30">
	<g id="Group_1754" data-name="Group 1754">
		<g id="Group_1753" data-name="Group 1753" class="cls-2">
			<g id="Group_1751" data-name="Group 1751">
				<path id="Path_1344" data-name="Path 1344" class="cls-3" d="M-127.333-3.271a13.329,13.329,0,0,0-9.456,9.453q-.151.569-.251,1.158h.791q.106-.59.268-1.158a12.552,12.552,0,0,1,8.648-8.645q.564-.159,1.15-.266V-3.52q-.584.1-1.15.249m-8.642,16.253q-.16-.563-.268-1.147h-.791q.1.582.251,1.146a13.331,13.331,0,0,0,9.45,9.434q.567.15,1.153.249v-.791q-.587-.106-1.153-.267a12.55,12.55,0,0,1-8.642-8.625m24.327-1.16q-.107.59-.269,1.159a12.553,12.553,0,0,1-8.615,8.619q-.562.161-1.145.268v.791c.387-.067.769-.151,1.145-.251a13.33,13.33,0,0,0,9.423-9.426q.152-.571.253-1.16Zm.543-5.641a13.328,13.328,0,0,0-9.427-9.445q-.571-.153-1.16-.254v.791q.59.107,1.16.27a12.551,12.551,0,0,1,8.62,8.637q.159.564.266,1.15h.791q-.1-.584-.25-1.15" transform="translate(137.04 3.52)" />
			</g>
			<g id="Group_1752" data-name="Group 1752" transform="translate(0 0)">
				<path id="Path_1345" data-name="Path 1345" class="cls-3" d="M-430.91-252.4h-8.249a7.764,7.764,0,0,0,0-4.491h8.249Zm-12.45,12.058v-1.472c0-.269,0-.538,0-.808q0-2.276,0-4.551a.444.444,0,0,1,.262-.47,8.136,8.136,0,0,0,3.362-3.348.512.512,0,0,1,.359-.239q2.318-.015,4.637-.011h2.126c.046,0,.093.009.161.016a14.468,14.468,0,0,1-10.9,10.882M-444.5-238.8h-4.5v-8.241a7.782,7.782,0,0,0,4.5-.006Zm-5.656-1.728c0,.058-.01.116-.016.174-4.388-.3-10.545-6.453-10.876-10.888h2.25q2.291,0,4.582-.006a.445.445,0,0,1,.465.271,8.025,8.025,0,0,0,3.325,3.333c.164.089.278.161.278.389q-.012,2.319-.008,4.639ZM-462.6-252.386v-4.5h8.151a20.8,20.8,0,0,0-.228,2.251,20.613,20.613,0,0,0,.234,2.245Zm5.145-12.415a14.577,14.577,0,0,1,7.292-4.174v2.29c0,1.527,0,3.054.005,4.581a.445.445,0,0,1-.269.467,8.142,8.142,0,0,0-3.36,3.35.511.511,0,0,1-.362.236q-2.332.015-4.663.011h-2.065c-.058,0-.116-.009-.215-.018a14.517,14.517,0,0,1,3.636-6.743m8.443-5.689h4.491v8.248a7.8,7.8,0,0,0-4.491,0Zm9.05,15.863a6.71,6.71,0,0,1-6.85,6.786,6.709,6.709,0,0,1-6.75-6.814,6.707,6.707,0,0,1,6.849-6.785,6.71,6.71,0,0,1,6.751,6.813m-3.4-14.1c0-.069.011-.139.02-.244a14.618,14.618,0,0,1,7.148,4.039c1.808,1.845,3.617,5.189,3.719,6.89h-2.653c-1.393,0-2.785-.006-4.178.006a.443.443,0,0,1-.462-.276,8.031,8.031,0,0,0-3.328-3.331c-.165-.089-.274-.166-.273-.391q.011-2.324.007-4.646Zm12.532,10.691c-.325.029-.453-.075-.545-.4a15.756,15.756,0,0,0-11.588-11.591c-.328-.092-.436-.217-.406-.544.036-.4.066-.81-.348-1.067h-6.092c-.416.257-.384.671-.348,1.067.03.327-.077.452-.405.544a15.758,15.758,0,0,0-11.59,11.591c-.092.328-.217.435-.544.405-.4-.036-.81-.068-1.067.348v6.092c.258.414.672.384,1.067.348.327-.03.452.078.544.406a15.754,15.754,0,0,0,11.591,11.588c.329.093.433.22.4.545-.035.4-.066.81.348,1.067h6.092a.942.942,0,0,0,.348-1.032c-.044-.361.086-.492.438-.591a15.749,15.749,0,0,0,11.546-11.546c.1-.352.23-.482.591-.438a.942.942,0,0,0,1.032-.348v-6.092c-.258-.414-.671-.383-1.067-.348m-15.983,10.193a6.709,6.709,0,0,1-6.75-6.814,6.707,6.707,0,0,1,6.849-6.785,6.71,6.71,0,0,1,6.751,6.813,6.71,6.71,0,0,1-6.85,6.786m7.651-9.049h4.686q-.106-.585-.266-1.15h-.386c-1.393,0-2.785-.006-4.178.006a.443.443,0,0,1-.462-.276,8.031,8.031,0,0,0-3.328-3.331c-.165-.089-.274-.166-.273-.391q.011-2.324.007-4.646-.57-.161-1.16-.27v4.705a7.8,7.8,0,0,0-4.491,0v-4.708q-.585.106-1.15.266c0,1.527,0,3.054.005,4.581a.445.445,0,0,1-.269.467,8.142,8.142,0,0,0-3.36,3.35.511.511,0,0,1-.362.236q-2.332.015-4.663.011-.16.568-.268,1.158h4.629a20.8,20.8,0,0,0-.228,2.251,20.613,20.613,0,0,0,.234,2.245h-4.629q.106.583.268,1.147,2.291,0,4.582-.006a.445.445,0,0,1,.465.271,8.025,8.025,0,0,0,3.325,3.333c.164.089.278.161.278.389q-.012,2.319-.008,4.639.566.16,1.153.267v-4.691a7.782,7.782,0,0,0,4.5-.006v4.691q.582-.107,1.145-.268,0-2.276,0-4.551a.444.444,0,0,1,.262-.47,8.136,8.136,0,0,0,3.362-3.348.512.512,0,0,1,.359-.239q2.318-.015,4.637-.011.162-.568.269-1.159h-4.684a7.764,7.764,0,0,0,0-4.491" transform="translate(463.76 271.64)" />
			</g>
		</g>
	</g>
</svg>
