<svg xmlns="http://www.w3.org/2000/svg">
  <symbol id="icon_pdf_download" viewBox="3253 -675 30 30">
    <g transform="translate(2607 -1358)">
      <g id="Group_1884" data-name="Group 1884" transform="translate(-230 464.52)">
        <g id="Group_1829" data-name="Group 1829" transform="translate(885.552 239.854)">
          <path id="Path_1399" data-name="Path 1399" class="cls-1" d="M51.35,88.138h-1.4v2.123a.988.988,0,0,1-.215.69.761.761,0,0,1-1.1,0,.986.986,0,0,1-.211-.683V84.492a.945.945,0,0,1,.231-.716,1.054,1.054,0,0,1,.734-.214H51.35a5.152,5.152,0,0,1,1.335.133,1.994,1.994,0,0,1,.8.425,1.907,1.907,0,0,1,.511.726,2.544,2.544,0,0,1,.175.967,2.131,2.131,0,0,1-.709,1.736A3.233,3.233,0,0,1,51.35,88.138ZM50.981,84.7H49.954v2.291h1.027a3.079,3.079,0,0,0,.9-.112,1.054,1.054,0,0,0,.552-.368,1.1,1.1,0,0,0,.19-.67,1.135,1.135,0,0,0-.292-.808A1.96,1.96,0,0,0,50.981,84.7Z" transform="translate(-48.429 -83.561)"/>
          <path id="Path_1400" data-name="Path 1400" class="cls-1" d="M62.316,83.561H64.3a5.373,5.373,0,0,1,1.33.143,2.45,2.45,0,0,1,1.006.537,3.786,3.786,0,0,1,1.176,3.048,5.965,5.965,0,0,1-.118,1.233,3.624,3.624,0,0,1-.365,1,3.113,3.113,0,0,1-.631.8,2.6,2.6,0,0,1-.663.435,3,3,0,0,1-.773.23,5.9,5.9,0,0,1-.932.066H62.346a1.247,1.247,0,0,1-.626-.125.582.582,0,0,1-.274-.353,2.231,2.231,0,0,1-.064-.59v-5.5a.8.8,0,0,1,.935-.931Zm.59,1.2v5.089h1.155q.38,0,.6-.021a1.859,1.859,0,0,0,.446-.1,1.216,1.216,0,0,0,.4-.23,2.769,2.769,0,0,0,.765-2.219,3.26,3.26,0,0,0-.336-1.662,1.5,1.5,0,0,0-.829-.7,4.108,4.108,0,0,0-1.191-.151H62.906Z" transform="translate(-54.356 -83.561)"/>
          <path id="Path_1401" data-name="Path 1401" class="cls-1" d="M80.185,84.732h-3V86.65h2.511a.754.754,0,0,1,.521.156.536.536,0,0,1,.172.416.523.523,0,0,1-.175.414.766.766,0,0,1-.519.153H77.182v2.47a.99.99,0,0,1-.213.7.775.775,0,0,1-1.1,0,.993.993,0,0,1-.213-.7V84.492a1.261,1.261,0,0,1,.1-.535.607.607,0,0,1,.305-.3,1.286,1.286,0,0,1,.531-.095h3.594a.785.785,0,0,1,.542.161.543.543,0,0,1,.177.422.55.55,0,0,1-.177.427A.782.782,0,0,1,80.185,84.732Z" transform="translate(-60.889 -83.561)"/>
        </g>
        <g id="Group_1830" data-name="Group 1830" transform="translate(877.725 218.48)">
          <path id="Path_1402" data-name="Path 1402" class="cls-2" d="M44.863,58.271a1.764,1.764,0,0,1-1.71-1.078c-.459-1.123.2-2.667,1.817-4.236a14.036,14.036,0,0,1,5.249-3.011,57.023,57.023,0,0,0,3.029-6.517,9.9,9.9,0,0,1-1.409-7.645,2.5,2.5,0,0,1,1.53-1.768,1.726,1.726,0,0,1,1.856.46c.728.78,1,2.351.817,4.8a15.941,15.941,0,0,1-.971,3.906l.076.093c.383.466.791.979,1.219,1.516.913,1.147,1.94,2.435,2.983,3.59q.463-.015.893-.014c3.687,0,6.163.768,6.972,2.163a1.789,1.789,0,0,1,.02,1.837A2.892,2.892,0,0,1,64.641,53.6h0a4.838,4.838,0,0,1-.875-.082c-1.482-.272-3.108-1.383-5.1-3.487-.509.028-1.042.068-1.589.12a29.277,29.277,0,0,0-5.735,1.127c-.987,1.776-3.112,5.362-4.7,6.394A3.332,3.332,0,0,1,44.863,58.271Zm4.047-6.042a10.552,10.552,0,0,0-2.8,1.887c-1.434,1.395-1.527,2.269-1.447,2.465.023.057.124.069.2.069a1.789,1.789,0,0,0,.891-.33A15.373,15.373,0,0,0,48.911,52.229ZM60.932,50a6.952,6.952,0,0,0,3.127,1.928,3.248,3.248,0,0,0,.579.055h0a1.415,1.415,0,0,0,1.185-.424c.022-.038.053-.09-.021-.216C65.53,50.874,64.2,50.1,60.932,50ZM54.4,44.937c-.568,1.391-1.259,2.893-2.011,4.372a32.3,32.3,0,0,1,4.53-.766l.379-.035c-.776-.911-1.522-1.848-2.206-2.707C54.854,45.5,54.623,45.215,54.4,44.937Zm-.434-9.4a.262.262,0,0,0-.079.016c-.183.061-.37.335-.5.734a7.79,7.79,0,0,0,.578,5.049,10.905,10.905,0,0,0,.454-2.173c.2-2.728-.245-3.431-.386-3.582C53.993,35.537,53.978,35.537,53.966,35.537Z" transform="translate(-43.011 -33.917)"/>
        </g>
      </g>
    </g>
  </symbol>
</svg>
