<svg xmlns="http://www.w3.org/2000/svg" viewBox="-1 0 34 30">
	<path id="stroke" d="M16,1.6A14.4,14.4,0,1,1,1.6,16,14.417,14.417,0,0,1,16,1.6M16,0A16,16,0,1,0,32,16,16,16,0,0,0,16,0Z" />
	<path id="path3267" d="M123.095,69.375v1.886c-.763,0-4.2.972-4.2,4.089,0,2.772,2.477,3.527,4.194,3.775l0,3.133a2.347,2.347,0,0,1-1.655-2.12h-2.752a5.277,5.277,0,0,0,4.408,4.788v1.918h2.616V84.955c2.071-.11,4.524-1.9,4.524-4.35,0-2.807-2.443-3.6-4.524-3.818V73.915a1.821,1.821,0,0,1,1.527,1.7h2.725a4.537,4.537,0,0,0-4.279-4.352V69.375Zm.015,4.567v2.381C121.265,76.294,121.229,74.273,123.109,73.942Zm2.633,5.63c2.282.058,2.535,2.336,0,2.7Z" transform="translate(-108.601 -62.15)" />
</svg>
