<svg xmlns="http://www.w3.org/2000/svg">
  <symbol id="icon_calendario" viewBox="4852 682 21 21">
    <path class="cls-1" d="M833,338h-3.371a.639.639,0,0,0-.629.649v17.7a.638.638,0,0,0,.628.649h19.743a.639.639,0,0,0,.628-.649v-17.7a.639.639,0,0,0-.629-.649H846v1.248A1.75,1.75,0,0,1,844.25,341h-.5a1.751,1.751,0,0,1-1.75-1.752V338h-5v1.248A1.75,1.75,0,0,1,835.25,341h-.5a1.751,1.751,0,0,1-1.75-1.752Zm-3,15v2.626a.4.4,0,0,0,.43.374H833v-3Zm4,0v3h3v-3Zm4,0v3h3v-3Zm4,0v3h3v-3Zm4,0v3h2.57a.405.405,0,0,0,.43-.374V353Zm-16-4v3h3v-3Zm4,0v3h3v-3Zm8,0v3h3v-3Zm4,0v3h3v-3Zm-16-4v3h3v-3Zm4,0v3h3v-3Zm4,0v3h3v-3Zm4,0v3h3v-3Zm4,0v3h3v-3Zm-11.25-9a.75.75,0,0,0-.75.752v2.5a.751.751,0,0,0,.75.752h.5a.75.75,0,0,0,.75-.752v-2.5a.751.751,0,0,0-.75-.752Zm9.25,0a1,1,0,0,0-1,1v2a1,1,0,0,0,2,0v-2a1,1,0,0,0-1-1Z" transform="translate(4023 346)"/>
  </symbol>
</svg>
