<?xml version="1.0" encoding="iso-8859-1"?>
<!-- Uploaded to: SVG Repo, www.svgrepo.com, Generator: SVG Repo Mixer Tools -->
<svg fill="#000000" height="800px" width="800px" version="1.1" id="Layer_1" xmlns="http://www.w3.org/2000/svg"
     viewBox="0 -20 512 512" xml:space="preserve">
<g>
	<g>
		<path d="M464.153,93.921h-118.4V79.554c0-21.652-17.615-39.267-39.267-39.267H205.514c-21.652,0-39.267,17.615-39.267,39.267
			v14.368H47.848C21.464,93.921,0,115.197,0,141.348V385.95c0,26.457,21.464,47.981,47.848,47.981h13.858v10.244
			c0,15.185,12.353,27.538,27.538,27.538s27.538-12.353,27.538-27.538v-10.243h278.438v10.243c0,15.185,12.353,27.538,27.538,27.538
			c15.185,0,27.538-12.353,27.538-27.538v-10.243h13.858c26.383,0,47.847-21.524,47.847-47.981V141.348
			C512,115.197,490.536,93.921,464.153,93.921z M47.848,413.533v0.001c-15.136,0-27.449-12.374-27.449-27.583V141.348
			c0-15.156,12.057-27.028,27.449-27.028h48.025v299.213H47.848z M96.382,444.175c0,3.937-3.204,7.139-7.139,7.139
			c-3.936,0-7.139-3.203-7.139-7.139v-10.243h14.279V444.175z M186.645,79.554c0-10.404,8.464-18.869,18.869-18.869h100.972
			c10.404,0,18.869,8.464,18.869,18.869v14.368H186.645V79.554z M134.63,413.533h-18.359V114.32h18.359V413.533z M355.952,413.533
			H155.028V114.32h200.924V413.533z M394.709,413.533h-18.359V114.32h18.359V413.533z M429.896,444.175
			c0,3.937-3.204,7.139-7.139,7.139c-3.936,0-7.139-3.203-7.139-7.139v-10.243h14.279V444.175z M491.602,385.95
			c0,15.209-12.314,27.583-27.449,27.583h-49.045V114.32h49.045c15.393,0,27.449,11.872,27.449,27.028V385.95z"/>
	</g>
</g>
    <g>
	<g>
		<path d="M436.526,128c-5.632,0-10.199,4.566-10.199,10.199v111.171c0,5.633,4.567,10.199,10.199,10.199
			c5.632,0,10.199-4.566,10.199-10.199V138.199C446.725,132.566,442.158,128,436.526,128z"/>
	</g>
</g>
    <g>
	<g>
		<path d="M436.526,270.789c-5.632,0-10.199,4.566-10.199,10.199v11.219c0,5.633,4.567,10.199,10.199,10.199
			c5.632,0,10.199-4.566,10.199-10.199v-11.219C446.725,275.355,442.158,270.789,436.526,270.789z"/>
	</g>
</g>
</svg>