<svg xmlns="http://www.w3.org/2000/svg">
  <symbol id="icon_cursos" viewBox="3549 -155 30 30">
    <g transform="translate(2607 -388)">
      <path id="icon_books" class="cls-1" d="M19.557,41.724c-.085-.64-.1-1.743.5-2.113a.223.223,0,0,0,.028-.025c.486-.155.823-.374.558-.667l-7.171-2.161L1.857,38.372s-1.33.19-1.211,2.256a2.669,2.669,0,0,0,.726,1.948l-.953.287c-.264.294.072.512.558.667a.192.192,0,0,0,.028.025c.594.371.583,1.473.5,2.113-2.135.606-1.369.8-1.369.8l.468.113a2.272,2.272,0,0,0-.6,1.933c.119,2.066,1.211,2.208,1.211,2.208l7.6,2.47,11.47-2.778s.767-.2-1.369-.8c-.086-.639-.1-1.742.5-2.113a.176.176,0,0,0,.028-.025c.486-.155.822-.374.558-.667l-.5-.151c.332-.2.832-.724.91-2.086a2.416,2.416,0,0,0-.473-1.807l.985-.238S21.692,42.331,19.557,41.724ZM9.963,41.7l1.929-.4,6.518-1.339.971-.2a3.362,3.362,0,0,0-.246,1.845c.011.113.024.216.037.295l-1.063.264L9.882,44.212Zm-8.285,2.01.971.2,6.26,1.287.547.112h0l1.64.337.081,2.515-8.456-2.1-.834-.207c.012-.079.025-.182.037-.295A3.363,3.363,0,0,0,1.678,43.708ZM1.3,40.529a1.631,1.631,0,0,1,.284-1.149.516.516,0,0,1,.377-.156.639.639,0,0,1,.1.007l5,1.631,2.5.814-.082,2.532-7-1.963-.37-.1a.223.223,0,0,0-.046-.007C2.027,42.133,1.335,42.069,1.3,40.529ZM8.835,52.1,1.463,50.033a.22.22,0,0,0-.046-.007c-.029,0-.722-.066-.756-1.605a1.632,1.632,0,0,1,.284-1.149.517.517,0,0,1,.377-.156.666.666,0,0,1,.1.007h0l7.5,2.445Zm9.66-2.6c.012.113.025.216.037.295L9.242,52.1l.081-2.515,1.986-.408.293.071,1.1-.357,5.068-1.041.971-.2A3.359,3.359,0,0,0,18.5,49.5Zm.512-3.417a.178.178,0,0,0-.05.008l-.7.2-6.671,1.871L11.5,45.623l2.189-.714,5.3-1.728a.552.552,0,0,1,.483.146,1.633,1.633,0,0,1,.284,1.149C19.725,46.014,19.032,46.078,19.007,46.08Z" transform="translate(947 204.242)"/>
    </g>
  </symbol>
</svg>
