<svg version="1.1" id="Layer_1" xmlns="http://www.w3.org/2000/svg" xmlns:xlink="http://www.w3.org/1999/xlink" x="0px" y="0px"
	 width="841.89px" height="841.89px" enable-background="new 0 -123.304 841.89 841.89"
	 xml:space="preserve">
	<symbol id="icon_edit" viewBox="0 -123.304 841.89 841.89">
		<g transform="translate(6262.883 -2853.202) rotate(42)">
			<g id="Group_1563" transform="translate(179.1 6)">
				<path id="XMLID_5_" d="M-2319.581,6024.896l0.001-10.174c0.016-29.442-23.838-53.323-53.281-53.339c-0.02,0-0.04,0-0.06,0
					l-86.272,0c-29.443-0.017-53.324,23.838-53.341,53.281c0,0.02,0,0.039,0,0.06v10.174L-2319.581,6024.896z"/>
				<rect id="XMLID_4_" x="-2512.651" y="6047.624" width="192.953" height="342.858"/>
			</g>
			<g id="Group_1564" transform="translate(179.111 20.137)">
				<path id="Path_1192" d="M-2416.126,6574.952c-3.321-0.024-6.339-1.927-7.794-4.908l-87.642-190.187
					c-2.004-4.196-0.228-9.222,3.968-11.226c1.148-0.548,2.405-0.831,3.678-0.823h175.52c4.65-0.027,8.442,3.721,8.469,8.37
					c0.007,1.273-0.274,2.531-0.823,3.679l-87.64,190.068C-2409.722,6573.005-2412.771,6574.987-2416.126,6574.952z M-2490.5,6384.885
					l74.372,161.18l74.374-161.329H-2490.5L-2490.5,6384.885z"/>
			</g>
			<path id="XMLID_1_" d="M-2274.292,6505.841l75.088,0.001l-39.032,77.971L-2274.292,6505.841z"/>
		</g>
	</symbol>
</svg>
