<svg xmlns="http://www.w3.org/2000/svg" fill="red" viewBox="0 0 34 30">
    <path
            fill="red"
            d="M38.12,162.5H9.094a2.49,2.49,0,0,0-2.487,2.487v17.351a2.49,2.49,0,0,0,2.487,2.487H38.12a2.49,2.49,0,0,0,2.487-2.487V164.987A2.49,2.49,0,0,0,38.12,162.5Zm1.032,2.487v13.454l-4.929,4.929h-4.65V163.956H38.12A1.033,1.033,0,0,1,39.151,164.987ZM28.117,183.37H19.1V163.956h9.019ZM9.094,163.956h8.548V183.37H12.953l-4.891-4.891V164.987A1.032,1.032,0,0,1,9.094,163.956ZM8.063,182.338v-1.8L10.9,183.37h-1.8A1.032,1.032,0,0,1,8.063,182.338ZM38.12,183.37H36.28l2.871-2.871v1.839A1.033,1.033,0,0,1,38.12,183.37Z"/>
    <path
            fill="red"
            d="M79.06,386.2a.728.728,0,0,0,1.028.057l2.5-2.238a.728.728,0,0,0,.057-1.028l-1.013-1.133a.727.727,0,0,0-1.028-.058l-2.5,2.238a.728.728,0,0,0-.058,1.028Z"/>
    <!--    <path id="3"-->
    <!--          fill="red"-->
    <!--          d="M611.907,224.928a.728.728,0,0,0,1.029-.034l1.037-1.11a.728.728,0,0,0-.034-1.029l-2.453-2.294a.728.728,0,0,0-1.029.035l-1.038,1.11a.728.728,0,0,0,.035,1.029Z"/>-->
    <!--    <path id="4"-->
    <!--          fill="red"-->
    <!--          d="M577.77,457.348a2.167,2.167,0,1,0-2.167-2.167A2.17,2.17,0,0,0,577.77,457.348Zm0-2.879a.711.711,0,1,1-.711.711A.712.712,0,0,1,577.77,454.47Z"/>-->
    <!--    <path id="5" fill="red" d="M144.269,699.67a1.455,1.455,0,1,0,1.455,1.455A1.457,1.457,0,0,0,144.269,699.67Z"/>-->
    <!--    <path id="6" fill="red" d="M591.283,699.67a1.455,1.455,0,1,0,1.455,1.455A1.457,1.457,0,0,0,591.283,699.67Z"/>-->
    <!--    <path id="7" fill="red"-->
    <!--          d="M317.08,83.4a.728.728,0,0,0,.728-.728v-1.6a.728.728,0,0,0-.728-.728H310.8a.728.728,0,0,0-.728.728v1.6a.728.728,0,0,0,1.456,0V81.8h4.825v.872A.728.728,0,0,0,317.08,83.4Z"/>-->
    <!--    <path id="8" fill="red" d="M305.189,34.432h6.765a.728.728,0,1,0,0-1.456h-6.765a.728.728,0,0,0,0,1.456Z"/>-->
</svg>
