<svg xmlns="http://www.w3.org/2000/svg">
    <symbol id="chat-bubble-outline" viewBox="0 0 24 24">
        <path d="M20 2H4c-1.1 0-2 .9-2 2v18l4-4h14c1.1 0 2-.9 2-2V4c0-1.1-.9-2-2-2zm0 14H6l-2 2V4h16v12z"/>
    </symbol>
    <symbol id="save" viewBox="0 0 24 24">
        <path d="M17 3H5c-1.11 0-2 .9-2 2v14c0 1.1.89 2 2 2h14c1.1 0 2-.9 2-2V7l-4-4zm-5 16c-1.66 0-3-1.34-3-3s1.34-3 3-3 3 1.34 3 3-1.34 3-3 3zm3-10H5V5h10v4z"/>
    </symbol>
    <symbol id="send" viewBox="0 0 24 24">
        <path d="M2.01 21L23 12 2.01 3 2 10l15 2-15 2z"/>
    </symbol>
    <symbol id="undo" viewBox="0 0 24 24">
        <path d="M12.5 8c-2.65 0-5.05.99-6.9 2.6L2 7v9h9l-3.62-3.62c1.39-1.16 3.16-1.88 5.12-1.88 3.54 0 6.55 2.31 7.6 5.5l2.37-.78C21.08 11.03 17.15 8 12.5 8z"/>
    </symbol>
    <symbol id="alert" viewBox="4330 250 22 22">
        <path d="m 4341,272 a 11,11 0 1 0 -11,-11 11,11 0 0 0 11,11 z m -1.467,-16.133 a 1.467,1.467 0 1 1 2.933,0 V 261 a 1.467,1.467 0 1 1 -2.933,0 z m 1.467,7.927 a 1.606,1.606 0 1 1 -1.606,1.606 1.606,1.606 0 0 1 1.606,-1.606 z"/>
    </symbol>
    <symbol id="cancel-outline" viewBox="0 0 24 24">
        <path d="M14.59 8L12 10.59 9.41 8 8 9.41 10.59 12 8 14.59 9.41 16 12 13.41 14.59 16 16 14.59 13.41 12 16 9.41 14.59 8zM12 2C6.47 2 2 6.47 2 12s4.47 10 10 10 10-4.47 10-10S17.53 2 12 2zm0 18c-4.41 0-8-3.59-8-8s3.59-8 8-8 8 3.59 8 8-3.59 8-8 8z"/>
    </symbol>
    <symbol id="people" viewBox="0 0 24 24">
        <path d="M16 11c1.66 0 2.99-1.34 2.99-3S17.66 5 16 5c-1.66 0-3 1.34-3 3s1.34 3 3 3zm-8 0c1.66 0 2.99-1.34 2.99-3S9.66 5 8 5C6.34 5 5 6.34 5 8s1.34 3 3 3zm0 2c-2.33 0-7 1.17-7 3.5V19h14v-2.5c0-2.33-4.67-3.5-7-3.5zm8 0c-.29 0-.62.02-.97.05 1.16.84 1.97 1.97 1.97 3.45V19h6v-2.5c0-2.33-4.67-3.5-7-3.5z"/>
    </symbol>
    <symbol id="attach-file" viewBox="0 0 24 24">
        <path d="M16.5 6v11.5c0 2.21-1.79 4-4 4s-4-1.79-4-4V5c0-1.38 1.12-2.5 2.5-2.5s2.5 1.12 2.5 2.5v10.5c0 .55-.45 1-1 1s-1-.45-1-1V6H10v9.5c0 1.38 1.12 2.5 2.5 2.5s2.5-1.12 2.5-2.5V5c0-2.21-1.79-4-4-4S7 2.79 7 5v12.5c0 3.04 2.46 5.5 5.5 5.5s5.5-2.46 5.5-5.5V6h-1.5z"/>
    </symbol>
    <symbol id="payment" viewBox="0 0 24 24">
        <path d="M20 4H4c-1.11 0-1.99.89-1.99 2L2 18c0 1.11.89 2 2 2h16c1.11 0 2-.89 2-2V6c0-1.11-.89-2-2-2zm0 14H4v-6h16v6zm0-10H4V6h16v2z"/>
    </symbol>
    <symbol id="link" viewBox="0 0 24 24">
        <path d="M17 7h-4v2h4c1.65 0 3 1.35 3 3s-1.35 3-3 3h-4v2h4c2.76 0 5-2.24 5-5s-2.24-5-5-5zm-6 8H7c-1.65 0-3-1.35-3-3s1.35-3 3-3h4V7H7c-2.76 0-5 2.24-5 5s2.24 5 5 5h4v-2zm-3-4h8v2H8z"/>
    </symbol>
</svg>
