<svg version="1.1" id="Capa_1" xmlns="http://www.w3.org/2000/svg" xmlns:xlink="http://www.w3.org/1999/xlink" x="0px" y="0px"
	 viewBox="0 0 54.757 54.757" style="enable-background:new 0 0 54.757 54.757;" xml:space="preserve">
    <style>
        .cls1 {
            fill: #acacac;
        }
    </style>
<g>
	<path class="cls1" d="M51.792,39.132c-3.512-5.364-8.2-8.391-13.251-8.59c-0.27-0.032-0.543-0.054-0.821-0.054c-0.491,0-0.969,0.053-1.431,0.151
		c-4.595,0.594-8.827,3.552-12.062,8.492l-0.466,0.711l0.359,0.548C27.754,45.942,32.649,49,37.903,49
		c5.253,0,10.148-3.058,13.783-8.609l0.466-0.711L51.792,39.132z M42.629,37.397c0,2.707-2.202,4.909-4.909,4.909
		s-4.909-2.202-4.909-4.909c0-2.343,1.652-4.302,3.852-4.788c0.446-0.053,0.895-0.087,1.348-0.087c0.025,0,0.05,0.003,0.075,0.003
		C40.619,32.716,42.629,34.815,42.629,37.397z M37.903,47c-4.387,0-8.538-2.537-11.744-7.161c1.559-2.286,3.348-4.069,5.28-5.304
		c-0.4,0.874-0.629,1.841-0.629,2.863c0,3.81,3.1,6.909,6.909,6.909s6.909-3.1,6.909-6.909c0-1.216-0.318-2.357-0.872-3.351
		c2.204,1.207,4.242,3.107,5.996,5.637C46.533,44.406,42.339,47,37.903,47z"/>
	<path class="cls1" d="M21.61,42.034l-1.436-2.192l1.543-2.354c4.207-6.426,9.993-9.965,16.292-9.965c0.581,0,1.156,0.04,1.727,0.1
		c2.585-7.393,1-16.611-4.395-22.005C31.72,1.995,26.905,0,21.783,0c-5.123,0-9.938,1.995-13.56,5.617
		C1.52,12.319,0.687,24.929,6.419,32.569l15.363,22.188l4.855-7.012C24.796,46.221,23.102,44.313,21.61,42.034z M14.959,19
		c0-3.859,3.141-7,7-7s7,3.141,7,7s-3.141,7-7,7S14.959,22.859,14.959,19z"/>
</g>
</svg>
