<svg xmlns="http://www.w3.org/2000/svg">
  <symbol id="icon_menu_hamburger" viewBox="3979 181 20 16">
    <g transform="translate(3977 177)">
      <g id="menu">
        <path id="Union_6" data-name="Union 6" class="cls-1" d="M-3975-161a2.006,2.006,0,0,1-2-2,2.006,2.006,0,0,1,2-2h12a2.006,2.006,0,0,1,2,2,2.006,2.006,0,0,1-2,2Zm0-6a2.005,2.005,0,0,1-2-2,2.006,2.006,0,0,1,2-2h16a2,2,0,0,1,2,2,2,2,0,0,1-2,2Zm0-6a2.006,2.006,0,0,1-2-2,2.006,2.006,0,0,1,2-2h12a2.006,2.006,0,0,1,2,2,2.006,2.006,0,0,1-2,2Z" transform="translate(3979 181)"/>
      </g>
    </g>
  </symbol>
</svg>
