<?xml version="1.0" encoding="utf-8"?>
<svg version="1.1" xmlns="http://www.w3.org/2000/svg" xmlns:xlink="http://www.w3.org/1999/xlink" x="0px" y="0px"
	 width="200px" height="200px" enable-background="new 0 0 200 200" xml:space="preserve">
	<symbol viewBox="0 0 200 200" id="issue">
		<g>
			<g>
				<path d="M396.114,51.289c-1.913-1.912-4.453-2.965-7.159-2.965s-5.246,1.053-7.158,2.965c-1.914,1.914-2.967,4.454-2.967,7.16
					c0,2.705,1.053,5.246,2.967,7.158c1.912,1.914,4.452,2.967,7.158,2.967s5.246-1.053,7.159-2.967
					c1.913-1.912,2.966-4.453,2.966-7.158C399.08,55.743,398.027,53.203,396.114,51.289z M395.301,64.793
					c-1.696,1.697-3.951,2.631-6.346,2.631s-4.649-0.934-6.346-2.631c-3.499-3.498-3.499-9.191,0-12.689
					c1.696-1.696,3.951-2.629,6.346-2.629s4.649,0.933,6.346,2.629C398.8,55.602,398.8,61.295,395.301,64.793z"/>
				<path d="M393.417,53.987c-0.227-0.226-0.588-0.226-0.814,0l-3.647,3.647l-3.648-3.647c-0.225-0.226-0.587-0.226-0.813,0
					c-0.226,0.226-0.226,0.587,0,0.813l3.648,3.648l-3.648,3.646c-0.226,0.227-0.226,0.589,0,0.814
					c0.111,0.111,0.26,0.171,0.405,0.171c0.145,0,0.293-0.056,0.404-0.171l3.648-3.646l3.646,3.646
					c0.112,0.111,0.261,0.171,0.405,0.171c0.148,0,0.294-0.056,0.404-0.171c0.227-0.226,0.227-0.588,0-0.814l-3.639-3.646l3.648-3.648
					C393.643,54.574,393.643,54.213,393.417,53.987z"/>
			</g>
		</g>
		<g>
			<g>
				<g>
					<g>
						<path d="M195.999,79.13c2.302,0,4.171-1.869,4.171-4.171V41.57c0-2.31-1.869-4.179-4.171-4.179H4.009
							c-2.309,0-4.178,1.869-4.178,4.179v33.39c0,2.302,1.869,4.171,4.178,4.171c11.501,0,20.87,9.369,20.87,20.87
							c0,11.509-9.369,20.869-20.87,20.869c-2.309,0-4.178,1.869-4.178,4.171v33.398c0,2.301,1.869,4.171,4.178,4.171h191.99
							c2.302,0,4.171-1.87,4.171-4.171V125.04c0-2.302-1.869-4.171-4.171-4.171c-11.517,0-20.87-9.36-20.87-20.869
							C175.129,88.499,184.482,79.13,195.999,79.13z M166.779,100c0,14.69,10.906,26.895,25.049,28.918v25.35H8.18v-25.35
							C22.322,126.895,33.22,114.69,33.22,100S22.322,73.113,8.18,71.082V45.74h183.648v25.342
							C177.686,73.113,166.779,85.31,166.779,100z"/>
					</g>
				</g>
				<g>
					<g>
						<path d="M54.09,87.479c-2.31,0-4.171,1.87-4.171,4.179v16.691c0,2.31,1.861,4.179,4.171,4.179c2.302,0,4.171-1.869,4.171-4.179
							V91.658C58.261,89.349,56.392,87.479,54.09,87.479z"/>
					</g>
				</g>
				<g>
					<g>
						<path d="M54.09,54.09c-2.31,0-4.171,1.869-4.171,4.171v16.699c0,2.302,1.861,4.171,4.171,4.171c2.302,0,4.171-1.869,4.171-4.171
							V58.261C58.261,55.959,56.392,54.09,54.09,54.09z"/>
					</g>
				</g>
				<g>
					<g>
						<path d="M54.09,120.869c-2.31,0-4.171,1.869-4.171,4.171v16.699c0,2.302,1.861,4.171,4.171,4.171
							c2.302,0,4.171-1.869,4.171-4.171V125.04C58.261,122.738,56.392,120.869,54.09,120.869z"/>
					</g>
				</g>
				<g>
					<g>
						<path d="M145.91,87.479c-2.302,0-4.171,1.87-4.171,4.179v16.691c0,2.31,1.869,4.179,4.171,4.179s4.179-1.869,4.179-4.179V91.658
							C150.089,89.349,148.212,87.479,145.91,87.479z"/>
					</g>
				</g>
				<g>
					<g>
						<path d="M145.91,54.09c-2.302,0-4.171,1.869-4.171,4.171v16.699c0,2.302,1.869,4.171,4.171,4.171s4.179-1.869,4.179-4.171
							V58.261C150.089,55.959,148.212,54.09,145.91,54.09z"/>
					</g>
				</g>
				<g>
					<g>
						<path d="M145.91,120.869c-2.302,0-4.171,1.869-4.171,4.171v16.699c0,2.302,1.869,4.171,4.171,4.171s4.179-1.869,4.179-4.171
							V125.04C150.089,122.738,148.212,120.869,145.91,120.869z"/>
					</g>
				</g>
			</g>
			<path d="M94.694,67.854V81.98L64.803,106.89c-2.248,1.877-2.549,5.214-0.68,7.461c1.877,2.248,5.214,2.557,7.469,0.68
				l23.102-19.255v22.948l-13.54,9.029c-2.433,1.621-3.089,4.912-1.467,7.353c1.622,2.433,4.912,3.09,7.353,1.468l7.654-5.105v0.695
				c0,2.927,2.379,5.298,5.306,5.298c2.928,0,5.299-2.371,5.299-5.298v-0.695l7.662,5.105c2.433,1.622,5.723,0.965,7.345-1.468
				s0.974-5.731-1.468-7.353l-13.539-9.029V95.775l23.109,19.255c2.247,1.877,5.584,1.576,7.461-0.68
				c1.869-2.239,1.576-5.584-0.68-7.461L105.299,81.98V67.854c0-2.927-2.371-5.306-5.299-5.306
				C97.073,62.547,94.694,64.926,94.694,67.854z"/>
		</g>
	</symbol>
</svg>
