<?xml version="1.0" encoding="utf-8"?>
<svg version="1.1" xmlns="http://www.w3.org/2000/svg" xmlns:xlink="http://www.w3.org/1999/xlink" x="0px" y="0px"
	 width="200px" height="200px"  enable-background="new 0 0 200 200" xml:space="preserve">
	<symbol viewBox="0 0 200 200" id="not_reserved">
		<path d="M103.141,151.771V57.945c0-1.735-1.406-3.143-3.141-3.143c-1.736,0-3.143,1.407-3.143,3.143v93.825
			c0,1.736,1.406,3.144,3.143,3.144C101.734,154.914,103.141,153.507,103.141,151.771z"/>
		<path d="M194.266,34.342c-6.643,0-14.92-2.866-23.686-5.901c-11.1-3.843-23.68-8.199-36.729-8.199
			c-15.096,0-24.307,6.616-29.373,12.166c-1.895,2.076-3.365,4.156-4.479,6.003c-1.113-1.847-2.582-3.927-4.479-6.003
			c-5.068-5.55-14.277-12.166-29.375-12.166c-13.048,0-25.628,4.356-36.727,8.199c-8.766,3.035-17.043,5.901-23.686,5.901
			c-1.736,0-3.142,1.406-3.142,3.143v126.563c0,1.735,1.406,3.143,3.142,3.143c7.701,0,16.464-3.034,25.741-6.248
			c10.631-3.681,22.681-7.854,34.671-7.854c10.282,0,18.603,3.405,24.735,10.12c1.17,1.28,3.157,1.37,4.439,0.2
			c1.281-1.17,1.371-3.157,0.201-4.439c-5.068-5.55-14.279-12.165-29.375-12.165c-13.048,0-25.628,4.355-36.727,8.199
			c-7.43,2.574-14.511,5.025-20.543,5.712V40.471c6.909-0.658,14.561-3.309,22.599-6.092c10.631-3.681,22.681-7.854,34.671-7.854
			c24.25,0,30.594,19.257,30.85,20.066c0.405,1.318,1.623,2.22,3.004,2.22c1.379,0,2.598-0.9,3.004-2.22
			c0.061-0.201,6.445-20.066,30.848-20.066c11.992,0,24.041,4.173,34.672,7.854c8.039,2.784,15.689,5.434,22.6,6.092v120.245
			c-6.031-0.687-13.113-3.138-20.543-5.711c-11.1-3.844-23.68-8.2-36.729-8.2c-15.096,0-24.307,6.616-29.373,12.166
			c-1.17,1.282-1.082,3.27,0.199,4.439c1.283,1.17,3.27,1.081,4.441-0.201c6.131-6.715,14.453-10.119,24.732-10.119
			c11.992,0,24.041,4.173,34.672,7.853c9.279,3.214,18.041,6.248,25.742,6.248c1.736,0,3.143-1.406,3.143-3.142V37.484
			C197.408,35.749,196.002,34.342,194.266,34.342z"/>
		<path d="M194.266,173.475c-6.643,0-14.92-2.867-23.686-5.901c-11.1-3.844-23.68-8.199-36.729-8.199
			c-14.178,0-23.164,5.835-28.402,11.142h-10.9c-5.238-5.307-14.225-11.142-28.403-11.142c-13.048,0-25.628,4.355-36.727,8.199
			c-8.765,3.034-17.042,5.901-23.685,5.901c-1.736,0-3.142,1.405-3.142,3.142s1.406,3.142,3.142,3.142
			c7.701,0,16.464-3.034,25.741-6.246c10.631-3.681,22.681-7.853,34.671-7.853c10.282,0,18.603,3.403,24.735,10.117
			c0.596,0.652,1.438,1.023,2.32,1.023h13.596c0.883,0,1.727-0.371,2.322-1.022c6.129-6.715,14.453-10.118,24.732-10.118
			c11.99,0,24.041,4.172,34.672,7.853c9.277,3.212,18.041,6.246,25.74,6.246c1.736,0,3.145-1.405,3.145-3.142
			S196.002,173.475,194.266,173.475z"/>
		<g>
			<g>
				<path d="M173.62,71.673c-6.928-6.928-16.124-10.739-25.922-10.739s-18.994,3.811-25.921,10.739
					c-6.929,6.928-10.739,16.124-10.739,25.922c0,9.797,3.811,18.994,10.739,25.922c6.927,6.928,16.123,10.739,25.921,10.739
					s18.994-3.812,25.922-10.739c6.928-6.929,10.739-16.125,10.739-25.922C184.359,87.797,180.548,78.602,173.62,71.673z
					 M170.673,120.569c-6.141,6.141-14.303,9.521-22.975,9.521s-16.834-3.381-22.975-9.521c-12.667-12.668-12.667-33.281,0-45.949
					c6.141-6.141,14.303-9.52,22.975-9.52s16.834,3.379,22.975,9.52C183.341,87.289,183.341,107.901,170.673,120.569z"/>
				<path d="M163.854,81.441c-0.819-0.818-2.13-0.818-2.947,0l-13.208,13.208L134.49,81.441
					c-0.817-0.818-2.129-0.818-2.946,0c-0.818,0.817-0.818,2.129,0,2.946l13.208,13.208l-13.208,13.208
					c-0.818,0.818-0.818,2.128,0,2.948c0.4,0.4,0.94,0.616,1.466,0.616c0.523,0,1.064-0.199,1.466-0.616l13.207-13.208l13.208,13.208
					c0.401,0.4,0.941,0.616,1.466,0.616c0.54,0,1.064-0.199,1.466-0.616c0.817-0.82,0.817-2.13,0-2.948l-13.177-13.208l13.208-13.208
					C164.671,83.57,164.671,82.258,163.854,81.441z"/>
			</g>
		</g>
	</symbol>
</svg>
