<?xml version="1.0" encoding="utf-8"?>
<!-- Generator: Adobe Illustrator 16.0.0, SVG Export Plug-In . SVG Version: 6.00 Build 0)  -->
<!DOCTYPE svg PUBLIC "-//W3C//DTD SVG 1.1//EN" "http://www.w3.org/Graphics/SVG/1.1/DTD/svg11.dtd">
<svg version="1.1" id="Layer_1" xmlns="http://www.w3.org/2000/svg" xmlns:xlink="http://www.w3.org/1999/xlink" x="0px" y="0px"
	 width="200px" height="200px" enable-background="new 0 0 200 200" xml:space="preserve">
	<symbol id="reserved" viewBox="0 0 200 200">
		<g>
		<path d="M103.141,151.771V57.945c0-1.735-1.406-3.143-3.141-3.143c-1.736,0-3.143,1.407-3.143,3.143v93.825
			c0,1.736,1.406,3.144,3.143,3.144C101.734,154.914,103.141,153.507,103.141,151.771z"/>
		<path d="M194.266,34.342c-6.643,0-14.92-2.866-23.686-5.901c-11.1-3.843-23.68-8.199-36.729-8.199
			c-15.096,0-24.307,6.616-29.373,12.166c-1.895,2.076-3.365,4.156-4.479,6.003c-1.113-1.847-2.582-3.927-4.479-6.003
			c-5.068-5.55-14.277-12.166-29.375-12.166c-13.048,0-25.628,4.356-36.727,8.199c-8.766,3.035-17.043,5.901-23.686,5.901
			c-1.736,0-3.142,1.406-3.142,3.143v126.563c0,1.735,1.406,3.143,3.142,3.143c7.701,0,16.464-3.034,25.741-6.248
			c10.631-3.681,22.681-7.854,34.671-7.854c10.282,0,18.603,3.405,24.735,10.12c1.17,1.28,3.157,1.37,4.439,0.2
			c1.281-1.17,1.371-3.157,0.201-4.439c-5.068-5.55-14.279-12.165-29.375-12.165c-13.048,0-25.628,4.355-36.727,8.199
			c-7.43,2.574-14.511,5.025-20.543,5.712V40.471c6.909-0.658,14.561-3.309,22.599-6.092c10.631-3.681,22.681-7.854,34.671-7.854
			c24.25,0,30.594,19.257,30.85,20.066c0.405,1.318,1.623,2.22,3.004,2.22c1.379,0,2.598-0.9,3.004-2.22
			c0.061-0.201,6.445-20.066,30.848-20.066c11.992,0,24.041,4.173,34.672,7.854c8.039,2.784,15.689,5.434,22.6,6.092v120.245
			c-6.031-0.687-13.113-3.138-20.543-5.711c-11.1-3.844-23.68-8.2-36.729-8.2c-15.096,0-24.307,6.616-29.373,12.166
			c-1.17,1.282-1.082,3.27,0.199,4.439c1.283,1.17,3.27,1.081,4.441-0.201c6.131-6.715,14.453-10.119,24.732-10.119
			c11.992,0,24.041,4.173,34.672,7.853c9.279,3.214,18.041,6.248,25.742,6.248c1.736,0,3.143-1.406,3.143-3.142V37.484
			C197.408,35.749,196.002,34.342,194.266,34.342z"/>
		<path d="M194.266,173.475c-6.643,0-14.92-2.867-23.686-5.901c-11.1-3.844-23.68-8.199-36.729-8.199
			c-14.178,0-23.164,5.835-28.402,11.142h-10.9c-5.238-5.307-14.225-11.142-28.403-11.142c-13.048,0-25.628,4.355-36.727,8.199
			c-8.765,3.034-17.042,5.901-23.685,5.901c-1.736,0-3.142,1.405-3.142,3.142s1.406,3.142,3.142,3.142
			c7.701,0,16.464-3.034,25.741-6.246c10.631-3.681,22.681-7.853,34.671-7.853c10.282,0,18.603,3.403,24.735,10.117
			c0.596,0.652,1.438,1.023,2.32,1.023h13.596c0.883,0,1.727-0.371,2.322-1.022c6.129-6.715,14.453-10.118,24.732-10.118
			c11.99,0,24.041,4.172,34.672,7.853c9.277,3.212,18.041,6.246,25.74,6.246c1.736,0,3.145-1.405,3.145-3.142
			S196.002,173.475,194.266,173.475z"/>
		</g>
	</symbol>
</svg>
