<svg xmlns="http://www.w3.org/2000/svg" viewBox="1965.498 -680.045 124.502 123.462">
  <defs>
    <style>
      .cls-1 {
        fill: #fff;
      }

      .cls-2 {
        fill: #dfdfdf;
      }
    </style>
  </defs>
  <g id="super_maks" transform="translate(1701 -1547)">
    <g id="mask_foto_usuario_green" transform="translate(-372 34)">
      <path id="Subtraction_10" data-name="Subtraction 10" class="cls-1" d="M-2111,1447h-124V1324h124v123Zm-62-95a33.781,33.781,0,0,0-13.234,2.672,33.883,33.883,0,0,0-10.807,7.286,33.888,33.888,0,0,0-7.287,10.807A33.787,33.787,0,0,0-2207,1386a33.787,33.787,0,0,0,2.672,13.234,33.887,33.887,0,0,0,7.287,10.807,33.884,33.884,0,0,0,10.807,7.286A33.781,33.781,0,0,0-2173,1420a33.783,33.783,0,0,0,13.234-2.672,33.882,33.882,0,0,0,10.807-7.286,33.885,33.885,0,0,0,7.286-10.807A33.787,33.787,0,0,0-2139,1386a33.787,33.787,0,0,0-2.672-13.234,33.882,33.882,0,0,0-7.286-10.807,33.883,33.883,0,0,0-10.807-7.286A33.783,33.783,0,0,0-2173,1352Z" transform="translate(2872 -491)"/>
      <g id="Group_1888" data-name="Group 1888" transform="translate(-444.735 824.723)">
        <g id="Group_1887" data-name="Group 1887" transform="translate(1081.233 8.232)">
          <g id="Group_1886" data-name="Group 1886" transform="translate(0 0)">
            <path id="Subtraction_11" data-name="Subtraction 11" class="cls-2" d="M-2810.685,614.507l-5.953-14.358a1.587,1.587,0,0,1,.056-1.52A1.585,1.585,0,0,1-2815.2,598a3.759,3.759,0,0,1-3.217-2.147l-3.7-8.945a2.334,2.334,0,0,1,.308-2.312,33.8,33.8,0,0,0,11.109,2.456l.019,27.459Zm1.837,0h0l-.018-27.416a33.889,33.889,0,0,0,11.43-2.015,2.3,2.3,0,0,1,.022,1.83l-3.7,8.944a3.771,3.771,0,0,1-3.217,2.149,1.584,1.584,0,0,1,1.379.631,1.588,1.588,0,0,1,.059,1.519Zm-43.915-17.425v0l19.854-19.82a34,34,0,0,0,9.169,6.476,2.333,2.333,0,0,1-1.422,1.909l-8.944,3.7a3.2,3.2,0,0,1-1.213.224,3.739,3.739,0,0,1-2.579-.98,1.587,1.587,0,0,1,.528,1.423,1.591,1.591,0,0,1-1.036,1.114Zm86,0-14.365-5.951a1.587,1.587,0,0,1-1.034-1.112,1.59,1.59,0,0,1,.529-1.425,3.734,3.734,0,0,1-2.576.982,3.189,3.189,0,0,1-1.215-.226l-8.945-3.7a2.312,2.312,0,0,1-1.265-1.278,33.937,33.937,0,0,0,9.789-6.371l19.083,19.084Zm1.3-1.3-19.068-19.072a33.953,33.953,0,0,0,6.572-9.7,2.327,2.327,0,0,1,1.065,1.165l3.7,8.945a3.77,3.77,0,0,1-.754,3.794,1.687,1.687,0,0,1,1.18-.555,1.5,1.5,0,0,1,1.355,1.058l5.949,14.363Zm-88.593,0h0l5.949-14.361a1.5,1.5,0,0,1,1.356-1.057,1.684,1.684,0,0,1,1.179.555,3.771,3.771,0,0,1-.756-3.8l3.706-8.943a2.324,2.324,0,0,1,2.156-1.436,2.308,2.308,0,0,1,.341.025,33.972,33.972,0,0,0,5.955,9.169Zm77.534-30.471a2.34,2.34,0,0,1-.688-.1A33.86,33.86,0,0,0-2775,553.7l26.969,0-14.369,5.951a1.988,1.988,0,0,1-.76.163,1.292,1.292,0,0,1-1-.429,1.73,1.73,0,0,1-.391-1.172,3.773,3.773,0,0,1-2.149,3.218l-8.946,3.705A2.323,2.323,0,0,1-2776.53,565.308Zm-66.476,0a2.323,2.323,0,0,1-.885-.175l-8.946-3.705a3.764,3.764,0,0,1-2.148-3.215,1.423,1.423,0,0,1-1.385,1.6,2,2,0,0,1-.762-.163L-2871.5,553.7h28.5a33.908,33.908,0,0,0,1.894,10.624A2.334,2.334,0,0,1-2843.006,565.308Zm67.989-13.443h0a33.822,33.822,0,0,0-2.413-11.434,2.333,2.333,0,0,1,.9-.182,2.3,2.3,0,0,1,.882.175l8.947,3.707a3.765,3.765,0,0,1,2.15,3.217,1.424,1.424,0,0,1,1.387-1.6,2,2,0,0,1,.759.162l14.368,5.948Zm-67.957,0H-2871.5l14.366-5.951a2,2,0,0,1,.762-.163,1.422,1.422,0,0,1,1.384,1.6,3.76,3.76,0,0,1,2.15-3.217l8.943-3.707a2.308,2.308,0,0,1,.884-.176,2.328,2.328,0,0,1,2.052,1.216,33.878,33.878,0,0,0-2.017,10.4Zm2.5-13.042a2.324,2.324,0,0,1-2.156-1.436l-3.708-8.945a3.772,3.772,0,0,1,.758-3.794,1.684,1.684,0,0,1-1.178.553,1.508,1.508,0,0,1-1.359-1.057l-5.95-14.367,20.167,20.168a33.993,33.993,0,0,0-5.921,8.782A2.289,2.289,0,0,1-2840.475,538.821Zm62.273-.163h0a33.968,33.968,0,0,0-6.644-9.5l19.38-19.38-5.951,14.366a1.5,1.5,0,0,1-1.356,1.058,1.693,1.693,0,0,1-1.181-.553,3.767,3.767,0,0,1,.756,3.794l-3.7,8.945a2.317,2.317,0,0,1-1.3,1.273Zm-54.415-10.023h0l-20.151-20.157,14.365,5.952a1.588,1.588,0,0,1,1.034,1.113,1.587,1.587,0,0,1-.528,1.423,3.739,3.739,0,0,1,2.58-.98,3.214,3.214,0,0,1,1.211.223l8.943,3.708a2.347,2.347,0,0,1,1.4,2.539,34.017,34.017,0,0,0-8.858,6.181Zm46.441-.749h0a33.93,33.93,0,0,0-9.611-6.134,2.347,2.347,0,0,1,1.415-1.836l8.946-3.708a3.206,3.206,0,0,1,1.21-.223,3.74,3.74,0,0,1,2.581.98,1.588,1.588,0,0,1-.529-1.424,1.586,1.586,0,0,1,1.033-1.111l14.37-5.953-19.413,19.408Zm-35.187-6.476h0a2.325,2.325,0,0,1-.755-2.755l3.7-8.945a3.771,3.771,0,0,1,3.217-2.147,1.586,1.586,0,0,1-1.381-.63,1.588,1.588,0,0,1-.057-1.52l5.952-14.361,0,28.082a33.831,33.831,0,0,0-10.678,2.278Zm23.617-.414h0a33.919,33.919,0,0,0-11.1-1.9l0-28.045,5.953,14.366a1.588,1.588,0,0,1-.059,1.519,1.584,1.584,0,0,1-1.379.631,3.773,3.773,0,0,1,3.217,2.147l3.7,8.945a2.328,2.328,0,0,1-.33,2.341Z" transform="translate(2871.498 -491.045)"/>
          </g>
        </g>
      </g>
    </g>
  </g>
</svg>
